<?xml version="1.0" encoding="UTF-8" standalone="no"?><svg xmlns="http://www.w3.org/2000/svg" xmlns:xlink="http://www.w3.org/1999/xlink" contentStyleType="text/css" height="2959px" preserveAspectRatio="none" style="width:578px;height:2959px;background:#FFFFFF;" version="1.1" viewBox="0 0 578 2959" width="578px" zoomAndPan="magnify"><defs/><g><rect fill="#F1F1F1" height="36.4883" rx="12.5" ry="12.5" style="stroke:#181818;stroke-width:1.5;" width="50" x="10" y="274.1973"/><text fill="#000000" font-family="sans-serif" font-size="14" lengthAdjust="spacing" textLength="30" x="20" y="297.7324">core</text><rect fill="#F1F1F1" height="36.4883" rx="12.5" ry="12.5" style="stroke:#181818;stroke-width:1.5;" width="87" x="110" y="76.4883"/><text fill="#000000" font-family="sans-serif" font-size="14" lengthAdjust="spacing" textLength="67" x="120" y="100.0234">what/why</text><path d="M60,292.4414 L70,292.4414 C85,292.4414 85,94.7324 100,94.7324 L110,94.7324 " fill="none" style="stroke:#181818;stroke-width:1.0;"/><rect fill="#F1F1F1" height="36.4883" rx="12.5" ry="12.5" style="stroke:#181818;stroke-width:1.5;" width="105" x="110" y="132.9766"/><text fill="#000000" font-family="sans-serif" font-size="14" lengthAdjust="spacing" textLength="85" x="120" y="156.5117">components</text><rect fill="#F1F1F1" height="36.4883" rx="12.5" ry="12.5" style="stroke:#181818;stroke-width:1.5;" width="41" x="265" y="20"/><text fill="#000000" font-family="sans-serif" font-size="14" lengthAdjust="spacing" textLength="21" x="275" y="43.5352">api</text><path d="M215,151.2207 L225,151.2207 C240,151.2207 240,38.2441 255,38.2441 L265,38.2441 " fill="none" style="stroke:#181818;stroke-width:1.0;"/><rect fill="#F1F1F1" height="36.4883" rx="12.5" ry="12.5" style="stroke:#181818;stroke-width:1.5;" width="49" x="265" y="76.4883"/><text fill="#000000" font-family="sans-serif" font-size="14" lengthAdjust="spacing" textLength="29" x="275" y="100.0234">etcd</text><path d="M215,151.2207 L225,151.2207 C240,151.2207 240,94.7324 255,94.7324 L265,94.7324 " fill="none" style="stroke:#181818;stroke-width:1.0;"/><rect fill="#F1F1F1" height="36.4883" rx="12.5" ry="12.5" style="stroke:#181818;stroke-width:1.5;" width="60" x="265" y="132.9766"/><text fill="#000000" font-family="sans-serif" font-size="14" lengthAdjust="spacing" textLength="40" x="275" y="156.5117">sched</text><path d="M215,151.2207 L225,151.2207 C240,151.2207 240,151.2207 255,151.2207 L265,151.2207 " fill="none" style="stroke:#181818;stroke-width:1.0;"/><rect fill="#F1F1F1" height="36.4883" rx="12.5" ry="12.5" style="stroke:#181818;stroke-width:1.5;" width="40" x="265" y="189.4648"/><text fill="#000000" font-family="sans-serif" font-size="14" lengthAdjust="spacing" textLength="20" x="275" y="213">cm</text><path d="M215,151.2207 L225,151.2207 C240,151.2207 240,207.709 255,207.709 L265,207.709 " fill="none" style="stroke:#181818;stroke-width:1.0;"/><rect fill="#F1F1F1" height="36.4883" rx="12.5" ry="12.5" style="stroke:#181818;stroke-width:1.5;" width="71" x="265" y="245.9531"/><text fill="#000000" font-family="sans-serif" font-size="14" lengthAdjust="spacing" textLength="51" x="275" y="269.4883">kubelet</text><path d="M215,151.2207 L225,151.2207 C240,151.2207 240,264.1973 255,264.1973 L265,264.1973 " fill="none" style="stroke:#181818;stroke-width:1.0;"/><path d="M60,292.4414 L70,292.4414 C85,292.4414 85,151.2207 100,151.2207 L110,151.2207 " fill="none" style="stroke:#181818;stroke-width:1.0;"/><rect fill="#F1F1F1" height="36.4883" rx="12.5" ry="12.5" style="stroke:#181818;stroke-width:1.5;" width="112" x="110" y="387.1738"/><text fill="#000000" font-family="sans-serif" font-size="14" lengthAdjust="spacing" textLength="92" x="120" y="410.709">rest api(crud)</text><rect fill="#F1F1F1" height="36.4883" rx="12.5" ry="12.5" style="stroke:#181818;stroke-width:1.5;" width="80" x="272" y="387.1738"/><text fill="#000000" font-family="sans-serif" font-size="14" lengthAdjust="spacing" textLength="60" x="282" y="410.709">resource</text><rect fill="#F1F1F1" height="36.4883" rx="12.5" ry="12.5" style="stroke:#181818;stroke-width:1.5;" width="52" x="402" y="302.4414"/><text fill="#000000" font-family="sans-serif" font-size="14" lengthAdjust="spacing" textLength="32" x="412" y="325.9766">yaml</text><path d="M352,405.418 L362,405.418 C377,405.418 377,320.6855 392,320.6855 L402,320.6855 " fill="none" style="stroke:#181818;stroke-width:1.0;"/><rect fill="#F1F1F1" height="36.4883" rx="12.5" ry="12.5" style="stroke:#181818;stroke-width:1.5;" width="54" x="402" y="358.9297"/><text fill="#000000" font-family="sans-serif" font-size="14" lengthAdjust="spacing" textLength="34" x="412" y="382.4648">meta</text><path d="M352,405.418 L362,405.418 C377,405.418 377,377.1738 392,377.1738 L402,377.1738 " fill="none" style="stroke:#181818;stroke-width:1.0;"/><rect fill="#F1F1F1" height="36.4883" rx="12.5" ry="12.5" style="stroke:#181818;stroke-width:1.5;" width="51" x="402" y="415.418"/><text fill="#000000" font-family="sans-serif" font-size="14" lengthAdjust="spacing" textLength="31" x="412" y="438.9531">spec</text><path d="M352,405.418 L362,405.418 C377,405.418 377,433.6621 392,433.6621 L402,433.6621 " fill="none" style="stroke:#181818;stroke-width:1.0;"/><rect fill="#F1F1F1" height="36.4883" rx="12.5" ry="12.5" style="stroke:#181818;stroke-width:1.5;" width="96" x="402" y="471.9063"/><text fill="#000000" font-family="sans-serif" font-size="14" lengthAdjust="spacing" textLength="76" x="412" y="495.4414">sub(status)</text><path d="M352,405.418 L362,405.418 C377,405.418 377,490.1504 392,490.1504 L402,490.1504 " fill="none" style="stroke:#181818;stroke-width:1.0;"/><path d="M222,405.418 L232,405.418 C247,405.418 247,405.418 262,405.418 L272,405.418 " fill="none" style="stroke:#181818;stroke-width:1.0;"/><path d="M60,292.4414 L70,292.4414 C85,292.4414 85,405.418 100,405.418 L110,405.418 " fill="none" style="stroke:#181818;stroke-width:1.0;"/><rect fill="#F1F1F1" height="36.4883" rx="12.5" ry="12.5" style="stroke:#181818;stroke-width:1.5;" width="51" x="110" y="528.3945"/><text fill="#000000" font-family="sans-serif" font-size="14" lengthAdjust="spacing" textLength="31" x="120" y="551.9297">auth</text><rect fill="#F1F1F1" height="36.4883" rx="12.5" ry="12.5" style="stroke:#181818;stroke-width:1.5;" width="50" x="211" y="528.3945"/><text fill="#000000" font-family="sans-serif" font-size="14" lengthAdjust="spacing" textLength="30" x="221" y="551.9297">rbac</text><path d="M161,546.6387 L171,546.6387 C186,546.6387 186,546.6387 201,546.6387 L211,546.6387 " fill="none" style="stroke:#181818;stroke-width:1.0;"/><path d="M60,292.4414 L70,292.4414 C85,292.4414 85,546.6387 100,546.6387 L110,546.6387 " fill="none" style="stroke:#181818;stroke-width:1.0;"/><rect fill="#F1F1F1" height="36.4883" rx="12.5" ry="12.5" style="stroke:#181818;stroke-width:1.5;" width="87" x="10" y="867.3242"/><text fill="#000000" font-family="sans-serif" font-size="14" lengthAdjust="spacing" textLength="67" x="20" y="890.8594">resources</text><rect fill="#F1F1F1" height="36.4883" rx="12.5" ry="12.5" style="stroke:#181818;stroke-width:1.5;" width="50" x="147" y="754.3477"/><text fill="#000000" font-family="sans-serif" font-size="14" lengthAdjust="spacing" textLength="30" x="157" y="777.8828">core</text><rect fill="#F1F1F1" height="36.4883" rx="12.5" ry="12.5" style="stroke:#181818;stroke-width:1.5;" width="97" x="247" y="584.8828"/><text fill="#000000" font-family="sans-serif" font-size="14" lengthAdjust="spacing" textLength="77" x="257" y="608.418">namespace</text><path d="M197,772.5918 L207,772.5918 C222,772.5918 222,603.127 237,603.127 L247,603.127 " fill="none" style="stroke:#181818;stroke-width:1.0;"/><rect fill="#F1F1F1" height="36.4883" rx="12.5" ry="12.5" style="stroke:#181818;stroke-width:1.5;" width="47" x="247" y="641.3711"/><text fill="#000000" font-family="sans-serif" font-size="14" lengthAdjust="spacing" textLength="27" x="257" y="664.9063">pod</text><path d="M197,772.5918 L207,772.5918 C222,772.5918 222,659.6152 237,659.6152 L247,659.6152 " fill="none" style="stroke:#181818;stroke-width:1.0;"/><rect fill="#F1F1F1" height="36.4883" rx="12.5" ry="12.5" style="stroke:#181818;stroke-width:1.5;" width="66" x="247" y="697.8594"/><text fill="#000000" font-family="sans-serif" font-size="14" lengthAdjust="spacing" textLength="46" x="257" y="721.3945">deploy</text><path d="M197,772.5918 L207,772.5918 C222,772.5918 222,716.1035 237,716.1035 L247,716.1035 " fill="none" style="stroke:#181818;stroke-width:1.0;"/><rect fill="#F1F1F1" height="36.4883" rx="12.5" ry="12.5" style="stroke:#181818;stroke-width:1.5;" width="86" x="247" y="754.3477"/><text fill="#000000" font-family="sans-serif" font-size="14" lengthAdjust="spacing" textLength="66" x="257" y="777.8828">replicaset</text><path d="M197,772.5918 L207,772.5918 C222,772.5918 222,772.5918 237,772.5918 L247,772.5918 " fill="none" style="stroke:#181818;stroke-width:1.0;"/><rect fill="#F1F1F1" height="36.4883" rx="12.5" ry="12.5" style="stroke:#181818;stroke-width:1.5;" width="93" x="247" y="810.8359"/><text fill="#000000" font-family="sans-serif" font-size="14" lengthAdjust="spacing" textLength="73" x="257" y="834.3711">configmap</text><path d="M197,772.5918 L207,772.5918 C222,772.5918 222,829.0801 237,829.0801 L247,829.0801 " fill="none" style="stroke:#181818;stroke-width:1.0;"/><rect fill="#F1F1F1" height="36.4883" rx="12.5" ry="12.5" style="stroke:#181818;stroke-width:1.5;" width="61" x="247" y="867.3242"/><text fill="#000000" font-family="sans-serif" font-size="14" lengthAdjust="spacing" textLength="41" x="257" y="890.8594">secret</text><path d="M197,772.5918 L207,772.5918 C222,772.5918 222,885.5684 237,885.5684 L247,885.5684 " fill="none" style="stroke:#181818;stroke-width:1.0;"/><rect fill="#F1F1F1" height="36.4883" rx="12.5" ry="12.5" style="stroke:#181818;stroke-width:1.5;" width="121" x="247" y="923.8125"/><text fill="#000000" font-family="sans-serif" font-size="14" lengthAdjust="spacing" textLength="101" x="257" y="947.3477">serviceaccount</text><path d="M197,772.5918 L207,772.5918 C222,772.5918 222,942.0566 237,942.0566 L247,942.0566 " fill="none" style="stroke:#181818;stroke-width:1.0;"/><path d="M97,885.5684 L107,885.5684 C122,885.5684 122,772.5918 137,772.5918 L147,772.5918 " fill="none" style="stroke:#181818;stroke-width:1.0;"/><rect fill="#F1F1F1" height="36.4883" rx="12.5" ry="12.5" style="stroke:#181818;stroke-width:1.5;" width="76" x="147" y="1008.5449"/><text fill="#000000" font-family="sans-serif" font-size="14" lengthAdjust="spacing" textLength="56" x="157" y="1032.0801">network</text><rect fill="#F1F1F1" height="36.4883" rx="12.5" ry="12.5" style="stroke:#181818;stroke-width:1.5;" width="41" x="273" y="980.3008"/><text fill="#000000" font-family="sans-serif" font-size="14" lengthAdjust="spacing" textLength="21" x="283" y="1003.8359">svc</text><path d="M223,1026.7891 L233,1026.7891 C248,1026.7891 248,998.5449 263,998.5449 L273,998.5449 " fill="none" style="stroke:#181818;stroke-width:1.0;"/><rect fill="#F1F1F1" height="36.4883" rx="12.5" ry="12.5" style="stroke:#181818;stroke-width:1.5;" width="70" x="273" y="1036.7891"/><text fill="#000000" font-family="sans-serif" font-size="14" lengthAdjust="spacing" textLength="50" x="283" y="1060.3242">ingress</text><path d="M223,1026.7891 L233,1026.7891 C248,1026.7891 248,1055.0332 263,1055.0332 L273,1055.0332 " fill="none" style="stroke:#181818;stroke-width:1.0;"/><path d="M97,885.5684 L107,885.5684 C122,885.5684 122,1026.7891 137,1026.7891 L147,1026.7891 " fill="none" style="stroke:#181818;stroke-width:1.0;"/><rect fill="#F1F1F1" height="36.4883" rx="12.5" ry="12.5" style="stroke:#181818;stroke-width:1.5;" width="58" x="147" y="1121.5215"/><text fill="#000000" font-family="sans-serif" font-size="14" lengthAdjust="spacing" textLength="38" x="157" y="1145.0566">batch</text><rect fill="#F1F1F1" height="36.4883" rx="12.5" ry="12.5" style="stroke:#181818;stroke-width:1.5;" width="42" x="255" y="1093.2773"/><text fill="#000000" font-family="sans-serif" font-size="14" lengthAdjust="spacing" textLength="22" x="265" y="1116.8125">job</text><path d="M205,1139.7656 L215,1139.7656 C230,1139.7656 230,1111.5215 245,1111.5215 L255,1111.5215 " fill="none" style="stroke:#181818;stroke-width:1.0;"/><rect fill="#F1F1F1" height="36.4883" rx="12.5" ry="12.5" style="stroke:#181818;stroke-width:1.5;" width="73" x="255" y="1149.7656"/><text fill="#000000" font-family="sans-serif" font-size="14" lengthAdjust="spacing" textLength="53" x="265" y="1173.3008">cronjob</text><path d="M205,1139.7656 L215,1139.7656 C230,1139.7656 230,1168.0098 245,1168.0098 L255,1168.0098 " fill="none" style="stroke:#181818;stroke-width:1.0;"/><path d="M97,885.5684 L107,885.5684 C122,885.5684 122,1139.7656 137,1139.7656 L147,1139.7656 " fill="none" style="stroke:#181818;stroke-width:1.0;"/><rect fill="#F1F1F1" height="36.4883" rx="12.5" ry="12.5" style="stroke:#181818;stroke-width:1.5;" width="66" x="10" y="1658.1602"/><text fill="#000000" font-family="sans-serif" font-size="14" lengthAdjust="spacing" textLength="46" x="20" y="1681.6953">deploy</text><rect fill="#F1F1F1" height="36.4883" rx="12.5" ry="12.5" style="stroke:#181818;stroke-width:1.5;" width="117" x="126" y="1206.2539"/><text fill="#000000" font-family="sans-serif" font-size="14" lengthAdjust="spacing" textLength="97" x="136" y="1229.7891">resource/limit</text><path d="M76,1676.4043 L86,1676.4043 C101,1676.4043 101,1224.498 116,1224.498 L126,1224.498 " fill="none" style="stroke:#181818;stroke-width:1.0;"/><rect fill="#F1F1F1" height="36.4883" rx="12.5" ry="12.5" style="stroke:#181818;stroke-width:1.5;" width="147" x="126" y="1262.7422"/><text fill="#000000" font-family="sans-serif" font-size="14" lengthAdjust="spacing" textLength="127" x="136" y="1286.2773">readiness/liveness</text><path d="M76,1676.4043 L86,1676.4043 C101,1676.4043 101,1280.9863 116,1280.9863 L126,1280.9863 " fill="none" style="stroke:#181818;stroke-width:1.0;"/><rect fill="#F1F1F1" height="36.4883" rx="12.5" ry="12.5" style="stroke:#181818;stroke-width:1.5;" width="125" x="126" y="1319.2305"/><text fill="#000000" font-family="sans-serif" font-size="14" lengthAdjust="spacing" textLength="105" x="136" y="1342.7656">command/args</text><path d="M76,1676.4043 L86,1676.4043 C101,1676.4043 101,1337.4746 116,1337.4746 L126,1337.4746 " fill="none" style="stroke:#181818;stroke-width:1.0;"/><rect fill="#F1F1F1" height="36.4883" rx="12.5" ry="12.5" style="stroke:#181818;stroke-width:1.5;" width="51" x="126" y="1375.7188"/><text fill="#000000" font-family="sans-serif" font-size="14" lengthAdjust="spacing" textLength="31" x="136" y="1399.2539">envs</text><path d="M76,1676.4043 L86,1676.4043 C101,1676.4043 101,1393.9629 116,1393.9629 L126,1393.9629 " fill="none" style="stroke:#181818;stroke-width:1.0;"/><rect fill="#F1F1F1" height="36.4883" rx="12.5" ry="12.5" style="stroke:#181818;stroke-width:1.5;" width="185" x="126" y="1432.207"/><text fill="#000000" font-family="sans-serif" font-size="14" lengthAdjust="spacing" textLength="165" x="136" y="1455.7422">volumes/volumeMounts</text><path d="M76,1676.4043 L86,1676.4043 C101,1676.4043 101,1450.4512 116,1450.4512 L126,1450.4512 " fill="none" style="stroke:#181818;stroke-width:1.0;"/><rect fill="#F1F1F1" height="36.4883" rx="12.5" ry="12.5" style="stroke:#181818;stroke-width:1.5;" width="123" x="126" y="1488.6953"/><text fill="#000000" font-family="sans-serif" font-size="14" lengthAdjust="spacing" textLength="103" x="136" y="1512.2305">serviceAccount</text><path d="M76,1676.4043 L86,1676.4043 C101,1676.4043 101,1506.9395 116,1506.9395 L126,1506.9395 " fill="none" style="stroke:#181818;stroke-width:1.0;"/><rect fill="#F1F1F1" height="36.4883" rx="12.5" ry="12.5" style="stroke:#181818;stroke-width:1.5;" width="128" x="126" y="1545.1836"/><text fill="#000000" font-family="sans-serif" font-size="14" lengthAdjust="spacing" textLength="108" x="136" y="1568.7188">securityContext</text><path d="M76,1676.4043 L86,1676.4043 C101,1676.4043 101,1563.4277 116,1563.4277 L126,1563.4277 " fill="none" style="stroke:#181818;stroke-width:1.0;"/><rect fill="#F1F1F1" height="36.4883" rx="12.5" ry="12.5" style="stroke:#181818;stroke-width:1.5;" width="92" x="126" y="1629.916"/><text fill="#000000" font-family="sans-serif" font-size="14" lengthAdjust="spacing" textLength="72" x="136" y="1653.4512">containers</text><rect fill="#F1F1F1" height="36.4883" rx="12.5" ry="12.5" style="stroke:#181818;stroke-width:1.5;" width="42" x="268" y="1601.6719"/><text fill="#000000" font-family="sans-serif" font-size="14" lengthAdjust="spacing" textLength="22" x="278" y="1625.207">init</text><path d="M218,1648.1602 L228,1648.1602 C243,1648.1602 243,1619.916 258,1619.916 L268,1619.916 " fill="none" style="stroke:#181818;stroke-width:1.0;"/><rect fill="#F1F1F1" height="36.4883" rx="12.5" ry="12.5" style="stroke:#181818;stroke-width:1.5;" width="69" x="268" y="1658.1602"/><text fill="#000000" font-family="sans-serif" font-size="14" lengthAdjust="spacing" textLength="49" x="278" y="1681.6953">sidecar</text><path d="M218,1648.1602 L228,1648.1602 C243,1648.1602 243,1676.4043 258,1676.4043 L268,1676.4043 " fill="none" style="stroke:#181818;stroke-width:1.0;"/><path d="M76,1676.4043 L86,1676.4043 C101,1676.4043 101,1648.1602 116,1648.1602 L126,1648.1602 " fill="none" style="stroke:#181818;stroke-width:1.0;"/><rect fill="#F1F1F1" height="36.4883" rx="12.5" ry="12.5" style="stroke:#181818;stroke-width:1.5;" width="109" x="126" y="1742.8926"/><text fill="#000000" font-family="sans-serif" font-size="14" lengthAdjust="spacing" textLength="89" x="136" y="1766.4277">nodeselector</text><rect fill="#F1F1F1" height="36.4883" rx="12.5" ry="12.5" style="stroke:#181818;stroke-width:1.5;" width="139" x="285" y="1714.6484"/><text fill="#000000" font-family="sans-serif" font-size="14" lengthAdjust="spacing" textLength="119" x="295" y="1738.1836">taints/tolerations</text><path d="M235,1761.1367 L245,1761.1367 C260,1761.1367 260,1732.8926 275,1732.8926 L285,1732.8926 " fill="none" style="stroke:#181818;stroke-width:1.0;"/><rect fill="#F1F1F1" height="36.4883" rx="12.5" ry="12.5" style="stroke:#181818;stroke-width:1.5;" width="67" x="285" y="1771.1367"/><text fill="#000000" font-family="sans-serif" font-size="14" lengthAdjust="spacing" textLength="47" x="295" y="1794.6719">affinity</text><path d="M235,1761.1367 L245,1761.1367 C260,1761.1367 260,1789.3809 275,1789.3809 L285,1789.3809 " fill="none" style="stroke:#181818;stroke-width:1.0;"/><path d="M76,1676.4043 L86,1676.4043 C101,1676.4043 101,1761.1367 116,1761.1367 L126,1761.1367 " fill="none" style="stroke:#181818;stroke-width:1.0;"/><rect fill="#F1F1F1" height="36.4883" rx="12.5" ry="12.5" style="stroke:#181818;stroke-width:1.5;" width="54" x="126" y="1968.8457"/><text fill="#000000" font-family="sans-serif" font-size="14" lengthAdjust="spacing" textLength="34" x="136" y="1992.3809">helm</text><rect fill="#F1F1F1" height="36.4883" rx="12.5" ry="12.5" style="stroke:#181818;stroke-width:1.5;" width="106" x="230" y="1884.1133"/><text fill="#000000" font-family="sans-serif" font-size="14" lengthAdjust="spacing" textLength="86" x="240" y="1907.6484">go-template</text><rect fill="#F1F1F1" height="36.4883" rx="12.5" ry="12.5" style="stroke:#181818;stroke-width:1.5;" width="63" x="386" y="1827.625"/><text fill="#000000" font-family="sans-serif" font-size="14" lengthAdjust="spacing" textLength="43" x="396" y="1851.1602">values</text><path d="M336,1902.3574 L346,1902.3574 C361,1902.3574 361,1845.8691 376,1845.8691 L386,1845.8691 " fill="none" style="stroke:#181818;stroke-width:1.0;"/><rect fill="#F1F1F1" height="36.4883" rx="12.5" ry="12.5" style="stroke:#181818;stroke-width:1.5;" width="71" x="386" y="1884.1133"/><text fill="#000000" font-family="sans-serif" font-size="14" lengthAdjust="spacing" textLength="51" x="396" y="1907.6484">helpers</text><path d="M336,1902.3574 L346,1902.3574 C361,1902.3574 361,1902.3574 376,1902.3574 L386,1902.3574 " fill="none" style="stroke:#181818;stroke-width:1.0;"/><rect fill="#F1F1F1" height="36.4883" rx="12.5" ry="12.5" style="stroke:#181818;stroke-width:1.5;" width="57" x="386" y="1940.6016"/><text fill="#000000" font-family="sans-serif" font-size="14" lengthAdjust="spacing" textLength="37" x="396" y="1964.1367">funcs</text><path d="M336,1902.3574 L346,1902.3574 C361,1902.3574 361,1958.8457 376,1958.8457 L386,1958.8457 " fill="none" style="stroke:#181818;stroke-width:1.0;"/><path d="M180,1987.0898 L190,1987.0898 C205,1987.0898 205,1902.3574 220,1902.3574 L230,1902.3574 " fill="none" style="stroke:#181818;stroke-width:1.0;"/><rect fill="#F1F1F1" height="36.4883" rx="12.5" ry="12.5" style="stroke:#181818;stroke-width:1.5;" width="77" x="230" y="1940.6016"/><text fill="#000000" font-family="sans-serif" font-size="14" lengthAdjust="spacing" textLength="57" x="240" y="1964.1367">package</text><path d="M180,1987.0898 L190,1987.0898 C205,1987.0898 205,1958.8457 220,1958.8457 L230,1958.8457 " fill="none" style="stroke:#181818;stroke-width:1.0;"/><rect fill="#F1F1F1" height="36.4883" rx="12.5" ry="12.5" style="stroke:#181818;stroke-width:1.5;" width="62" x="230" y="1997.0898"/><text fill="#000000" font-family="sans-serif" font-size="14" lengthAdjust="spacing" textLength="42" x="240" y="2020.625">hooks</text><path d="M180,1987.0898 L190,1987.0898 C205,1987.0898 205,2015.334 220,2015.334 L230,2015.334 " fill="none" style="stroke:#181818;stroke-width:1.0;"/><rect fill="#F1F1F1" height="36.4883" rx="12.5" ry="12.5" style="stroke:#181818;stroke-width:1.5;" width="129" x="230" y="2053.5781"/><text fill="#000000" font-family="sans-serif" font-size="14" lengthAdjust="spacing" textLength="109" x="240" y="2077.1133">history/rollback</text><path d="M180,1987.0898 L190,1987.0898 C205,1987.0898 205,2071.8223 220,2071.8223 L230,2071.8223 " fill="none" style="stroke:#181818;stroke-width:1.0;"/><rect fill="#F1F1F1" height="36.4883" rx="12.5" ry="12.5" style="stroke:#181818;stroke-width:1.5;" width="45" x="230" y="2110.0664"/><text fill="#000000" font-family="sans-serif" font-size="14" lengthAdjust="spacing" textLength="25" x="240" y="2133.6016">test</text><path d="M180,1987.0898 L190,1987.0898 C205,1987.0898 205,2128.3105 220,2128.3105 L230,2128.3105 " fill="none" style="stroke:#181818;stroke-width:1.0;"/><path d="M76,1676.4043 L86,1676.4043 C101,1676.4043 101,1987.0898 116,1987.0898 L126,1987.0898 " fill="none" style="stroke:#181818;stroke-width:1.0;"/><rect fill="#F1F1F1" height="36.4883" rx="12.5" ry="12.5" style="stroke:#181818;stroke-width:1.5;" width="35" x="10" y="2392.5078"/><text fill="#000000" font-family="sans-serif" font-size="14" lengthAdjust="spacing" textLength="15" x="20" y="2416.043">cli</text><rect fill="#F1F1F1" height="36.4883" rx="12.5" ry="12.5" style="stroke:#181818;stroke-width:1.5;" width="70" x="95" y="2364.2637"/><text fill="#000000" font-family="sans-serif" font-size="14" lengthAdjust="spacing" textLength="50" x="105" y="2387.7988">kubectl</text><rect fill="#F1F1F1" height="36.4883" rx="12.5" ry="12.5" style="stroke:#181818;stroke-width:1.5;" width="351" x="215" y="2166.5547"/><text fill="#000000" font-family="sans-serif" font-size="14" lengthAdjust="spacing" textLength="331" x="225" y="2190.0898">apply/create/get/describe/replace/patch/delete</text><path d="M165,2382.5078 L175,2382.5078 C190,2382.5078 190,2184.7988 205,2184.7988 L215,2184.7988 " fill="none" style="stroke:#181818;stroke-width:1.0;"/><rect fill="#F1F1F1" height="36.4883" rx="12.5" ry="12.5" style="stroke:#181818;stroke-width:1.5;" width="49" x="215" y="2223.043"/><text fill="#000000" font-family="sans-serif" font-size="14" lengthAdjust="spacing" textLength="29" x="225" y="2246.5781">logs</text><path d="M165,2382.5078 L175,2382.5078 C190,2382.5078 190,2241.2871 205,2241.2871 L215,2241.2871 " fill="none" style="stroke:#181818;stroke-width:1.0;"/><rect fill="#F1F1F1" height="36.4883" rx="12.5" ry="12.5" style="stroke:#181818;stroke-width:1.5;" width="167" x="215" y="2279.5313"/><text fill="#000000" font-family="sans-serif" font-size="14" lengthAdjust="spacing" textLength="147" x="225" y="2303.0664">exec/attach/cp/rsync</text><path d="M165,2382.5078 L175,2382.5078 C190,2382.5078 190,2297.7754 205,2297.7754 L215,2297.7754 " fill="none" style="stroke:#181818;stroke-width:1.0;"/><rect fill="#F1F1F1" height="36.4883" rx="12.5" ry="12.5" style="stroke:#181818;stroke-width:1.5;" width="158" x="215" y="2336.0195"/><text fill="#000000" font-family="sans-serif" font-size="14" lengthAdjust="spacing" textLength="138" x="225" y="2359.5547">port-forward/proxy</text><path d="M165,2382.5078 L175,2382.5078 C190,2382.5078 190,2354.2637 205,2354.2637 L215,2354.2637 " fill="none" style="stroke:#181818;stroke-width:1.0;"/><rect fill="#F1F1F1" height="36.4883" rx="12.5" ry="12.5" style="stroke:#181818;stroke-width:1.5;" width="71" x="215" y="2392.5078"/><text fill="#000000" font-family="sans-serif" font-size="14" lengthAdjust="spacing" textLength="51" x="225" y="2416.043">explain</text><path d="M165,2382.5078 L175,2382.5078 C190,2382.5078 190,2410.752 205,2410.752 L215,2410.752 " fill="none" style="stroke:#181818;stroke-width:1.0;"/><rect fill="#F1F1F1" height="36.4883" rx="12.5" ry="12.5" style="stroke:#181818;stroke-width:1.5;" width="116" x="215" y="2448.9961"/><text fill="#000000" font-family="sans-serif" font-size="14" lengthAdjust="spacing" textLength="96" x="225" y="2472.5313">api-resources</text><path d="M165,2382.5078 L175,2382.5078 C190,2382.5078 190,2467.2402 205,2467.2402 L215,2467.2402 " fill="none" style="stroke:#181818;stroke-width:1.0;"/><rect fill="#F1F1F1" height="36.4883" rx="12.5" ry="12.5" style="stroke:#181818;stroke-width:1.5;" width="64" x="215" y="2505.4844"/><text fill="#000000" font-family="sans-serif" font-size="14" lengthAdjust="spacing" textLength="44" x="225" y="2529.0195">debug</text><path d="M165,2382.5078 L175,2382.5078 C190,2382.5078 190,2523.7285 205,2523.7285 L215,2523.7285 " fill="none" style="stroke:#181818;stroke-width:1.0;"/><rect fill="#F1F1F1" height="36.4883" rx="12.5" ry="12.5" style="stroke:#181818;stroke-width:1.5;" width="63" x="215" y="2561.9727"/><text fill="#000000" font-family="sans-serif" font-size="14" lengthAdjust="spacing" textLength="43" x="225" y="2585.5078">config</text><rect fill="#F1F1F1" height="36.4883" rx="12.5" ry="12.5" style="stroke:#181818;stroke-width:1.5;" width="97" x="328" y="2561.9727"/><text fill="#000000" font-family="sans-serif" font-size="14" lengthAdjust="spacing" textLength="77" x="338" y="2585.5078">kubeconfig</text><path d="M278,2580.2168 L288,2580.2168 C303,2580.2168 303,2580.2168 318,2580.2168 L328,2580.2168 " fill="none" style="stroke:#181818;stroke-width:1.0;"/><path d="M165,2382.5078 L175,2382.5078 C190,2382.5078 190,2580.2168 205,2580.2168 L215,2580.2168 " fill="none" style="stroke:#181818;stroke-width:1.0;"/><path d="M45,2410.752 L55,2410.752 C70,2410.752 70,2382.5078 85,2382.5078 L95,2382.5078 " fill="none" style="stroke:#181818;stroke-width:1.0;"/><rect fill="#F1F1F1" height="36.4883" rx="12.5" ry="12.5" style="stroke:#181818;stroke-width:1.5;" width="50" x="95" y="2420.752"/><text fill="#000000" font-family="sans-serif" font-size="14" lengthAdjust="spacing" textLength="30" x="105" y="2444.2871">kind</text><path d="M45,2410.752 L55,2410.752 C70,2410.752 70,2438.9961 85,2438.9961 L95,2438.9961 " fill="none" style="stroke:#181818;stroke-width:1.0;"/><rect fill="#F1F1F1" height="36.4883" rx="12.5" ry="12.5" style="stroke:#181818;stroke-width:1.5;" width="84" x="95" y="2618.4609"/><text fill="#000000" font-family="sans-serif" font-size="14" lengthAdjust="spacing" textLength="64" x="105" y="2641.9961">minikube</text><path d="M45,2410.752 L55,2410.752 C70,2410.752 70,2636.7051 85,2636.7051 L95,2636.7051 " fill="none" style="stroke:#181818;stroke-width:1.0;"/><rect fill="#F1F1F1" height="36.4883" rx="12.5" ry="12.5" style="stroke:#181818;stroke-width:1.5;" width="57" x="10" y="2787.9258"/><text fill="#000000" font-family="sans-serif" font-size="14" lengthAdjust="spacing" textLength="37" x="20" y="2811.4609">other</text><rect fill="#F1F1F1" height="36.4883" rx="12.5" ry="12.5" style="stroke:#181818;stroke-width:1.5;" width="120" x="117" y="2674.9492"/><text fill="#000000" font-family="sans-serif" font-size="14" lengthAdjust="spacing" textLength="100" x="127" y="2698.4844">resourcequota</text><path d="M67,2806.1699 L77,2806.1699 C92,2806.1699 92,2693.1934 107,2693.1934 L117,2693.1934 " fill="none" style="stroke:#181818;stroke-width:1.0;"/><rect fill="#F1F1F1" height="36.4883" rx="12.5" ry="12.5" style="stroke:#181818;stroke-width:1.5;" width="90" x="117" y="2731.4375"/><text fill="#000000" font-family="sans-serif" font-size="14" lengthAdjust="spacing" textLength="70" x="127" y="2754.9727">limitrange</text><path d="M67,2806.1699 L77,2806.1699 C92,2806.1699 92,2749.6816 107,2749.6816 L117,2749.6816 " fill="none" style="stroke:#181818;stroke-width:1.0;"/><rect fill="#F1F1F1" height="36.4883" rx="12.5" ry="12.5" style="stroke:#181818;stroke-width:1.5;" width="133" x="117" y="2787.9258"/><text fill="#000000" font-family="sans-serif" font-size="14" lengthAdjust="spacing" textLength="113" x="127" y="2811.4609">debug container</text><path d="M67,2806.1699 L77,2806.1699 C92,2806.1699 92,2806.1699 107,2806.1699 L117,2806.1699 " fill="none" style="stroke:#181818;stroke-width:1.0;"/><rect fill="#F1F1F1" height="36.4883" rx="12.5" ry="12.5" style="stroke:#181818;stroke-width:1.5;" width="67" x="117" y="2872.6582"/><text fill="#000000" font-family="sans-serif" font-size="14" lengthAdjust="spacing" textLength="47" x="127" y="2896.1934">testing</text><rect fill="#F1F1F1" height="36.4883" rx="12.5" ry="12.5" style="stroke:#181818;stroke-width:1.5;" width="90" x="234" y="2844.4141"/><text fill="#000000" font-family="sans-serif" font-size="14" lengthAdjust="spacing" textLength="70" x="244" y="2867.9492">bluegreen</text><path d="M184,2890.9023 L194,2890.9023 C209,2890.9023 209,2862.6582 224,2862.6582 L234,2862.6582 " fill="none" style="stroke:#181818;stroke-width:1.0;"/><rect fill="#F1F1F1" height="36.4883" rx="12.5" ry="12.5" style="stroke:#181818;stroke-width:1.5;" width="65" x="234" y="2900.9023"/><text fill="#000000" font-family="sans-serif" font-size="14" lengthAdjust="spacing" textLength="45" x="244" y="2924.4375">canary</text><path d="M184,2890.9023 L194,2890.9023 C209,2890.9023 209,2919.1465 224,2919.1465 L234,2919.1465 " fill="none" style="stroke:#181818;stroke-width:1.0;"/><path d="M67,2806.1699 L77,2806.1699 C92,2806.1699 92,2890.9023 107,2890.9023 L117,2890.9023 " fill="none" style="stroke:#181818;stroke-width:1.0;"/><!--SRC=[JLHDRzim3BtxL-YO54YzTclHvTIjtGQa3LQqQ- -qpDXQP4cJAQV-zwC-WlGaKhJ8Hxv7tuu4dWPbsW5SLPq9QJrMuamSUg3wqC_HbdPmrg2XiHBiWbFfH99jCaRPOxRaa8vzQ50ZnRSUHuel5jA7TfcYV6M3brmcUZCCEbi34cHhT2YB5Pe5GwGmBcCs2DJd70t82FUOQymu8tOs30muEf3PSpQ3Qz5fEnS8JYi9OyIO7fgTwk84KasKlWH6z9EI25BQO58_1kbW_Jv79vbEPJh6aI0qG38Z_6kRdDjR4-tg1E04kzPgK6LEq2h3MVXgGbFIyUG7C6qDlai-cYcTazM1MwppkOtWqdt1- -s4bvi9Nj5yPmtXE-MaXe1h-R6WLwLPrQ84dxgqBOvCeIJhKom-eB4cgz43AMkA57Qx-3prrAFEx7TsHJWu3LGeda27o938NxbScPrTC38dOhBsq6M-Uclt-RPN8mEOQs-rPiBpr8aLbPIgLLMq9aaNPJezrymUbwuxf9gxa5urM4V2MG-rY_pmDQip5zEsoxNm7MKDHC1nwMe_paOM-NXQxQm_W6zhv-txNBxdZCeSDsBrGOb9QqteFcWhzvkm5fyzthfuylQf68bDMUhHVrJ8ls3ZLZ3Gg1GFfalhcVAVcApAN5Y9gMZ30sTDOeOdmO2Vg-eMUSsFg_wamT3hzb5CJ0SJAYxEBpzTVZw_MBm48pPWnELNSN6rlhfPNrsBxSk3YE5bjVZrz2WoDj4oFppU40Mnh3OmWNXctQa1r-AtGxEvVpXUY1zcKhmA0_z6gitRzlJ1zPVLTqNYXQMBNhnjgtlSGT34BwJbdUZMulNFpzLDzSZD1nR9MlXGtKM1-tajdb__0m00]--></g></svg>