<?xml version="1.0" encoding="UTF-8" standalone="no"?><svg xmlns="http://www.w3.org/2000/svg" xmlns:xlink="http://www.w3.org/1999/xlink" contentStyleType="text/css" height="3213px" preserveAspectRatio="none" style="width:578px;height:3213px;background:#FFFFFF;" version="1.1" viewBox="0 0 578 3213" width="578px" zoomAndPan="magnify"><defs/><g><rect fill="#F1F1F1" height="36.4883" rx="12.5" ry="12.5" style="stroke:#181818;stroke-width:1.5;" width="50" x="10" y="302.4414"/><text fill="#000000" font-family="sans-serif" font-size="14" lengthAdjust="spacing" textLength="30" x="20" y="325.9766">core</text><rect fill="#F1F1F1" height="36.4883" rx="12.5" ry="12.5" style="stroke:#181818;stroke-width:1.5;" width="87" x="110" y="76.4883"/><text fill="#000000" font-family="sans-serif" font-size="14" lengthAdjust="spacing" textLength="67" x="120" y="100.0234">what/why</text><path d="M60,320.6855 L70,320.6855 C85,320.6855 85,94.7324 100,94.7324 L110,94.7324 " fill="none" style="stroke:#181818;stroke-width:1.0;"/><rect fill="#F1F1F1" height="36.4883" rx="12.5" ry="12.5" style="stroke:#181818;stroke-width:1.5;" width="105" x="110" y="132.9766"/><text fill="#000000" font-family="sans-serif" font-size="14" lengthAdjust="spacing" textLength="85" x="120" y="156.5117">components</text><rect fill="#F1F1F1" height="36.4883" rx="12.5" ry="12.5" style="stroke:#181818;stroke-width:1.5;" width="41" x="265" y="20"/><text fill="#000000" font-family="sans-serif" font-size="14" lengthAdjust="spacing" textLength="21" x="275" y="43.5352">api</text><path d="M215,151.2207 L225,151.2207 C240,151.2207 240,38.2441 255,38.2441 L265,38.2441 " fill="none" style="stroke:#181818;stroke-width:1.0;"/><rect fill="#F1F1F1" height="36.4883" rx="12.5" ry="12.5" style="stroke:#181818;stroke-width:1.5;" width="49" x="265" y="76.4883"/><text fill="#000000" font-family="sans-serif" font-size="14" lengthAdjust="spacing" textLength="29" x="275" y="100.0234">etcd</text><path d="M215,151.2207 L225,151.2207 C240,151.2207 240,94.7324 255,94.7324 L265,94.7324 " fill="none" style="stroke:#181818;stroke-width:1.0;"/><rect fill="#F1F1F1" height="36.4883" rx="12.5" ry="12.5" style="stroke:#181818;stroke-width:1.5;" width="60" x="265" y="132.9766"/><text fill="#000000" font-family="sans-serif" font-size="14" lengthAdjust="spacing" textLength="40" x="275" y="156.5117">sched</text><path d="M215,151.2207 L225,151.2207 C240,151.2207 240,151.2207 255,151.2207 L265,151.2207 " fill="none" style="stroke:#181818;stroke-width:1.0;"/><rect fill="#F1F1F1" height="36.4883" rx="12.5" ry="12.5" style="stroke:#181818;stroke-width:1.5;" width="40" x="265" y="189.4648"/><text fill="#000000" font-family="sans-serif" font-size="14" lengthAdjust="spacing" textLength="20" x="275" y="213">cm</text><path d="M215,151.2207 L225,151.2207 C240,151.2207 240,207.709 255,207.709 L265,207.709 " fill="none" style="stroke:#181818;stroke-width:1.0;"/><rect fill="#F1F1F1" height="36.4883" rx="12.5" ry="12.5" style="stroke:#181818;stroke-width:1.5;" width="71" x="265" y="245.9531"/><text fill="#000000" font-family="sans-serif" font-size="14" lengthAdjust="spacing" textLength="51" x="275" y="269.4883">kubelet</text><path d="M215,151.2207 L225,151.2207 C240,151.2207 240,264.1973 255,264.1973 L265,264.1973 " fill="none" style="stroke:#181818;stroke-width:1.0;"/><path d="M60,320.6855 L70,320.6855 C85,320.6855 85,151.2207 100,151.2207 L110,151.2207 " fill="none" style="stroke:#181818;stroke-width:1.0;"/><rect fill="#F1F1F1" height="36.4883" rx="12.5" ry="12.5" style="stroke:#181818;stroke-width:1.5;" width="112" x="110" y="415.418"/><text fill="#000000" font-family="sans-serif" font-size="14" lengthAdjust="spacing" textLength="92" x="120" y="438.9531">rest api(crud)</text><rect fill="#F1F1F1" height="36.4883" rx="12.5" ry="12.5" style="stroke:#181818;stroke-width:1.5;" width="80" x="272" y="415.418"/><text fill="#000000" font-family="sans-serif" font-size="14" lengthAdjust="spacing" textLength="60" x="282" y="438.9531">resource</text><rect fill="#F1F1F1" height="36.4883" rx="12.5" ry="12.5" style="stroke:#181818;stroke-width:1.5;" width="52" x="402" y="302.4414"/><text fill="#000000" font-family="sans-serif" font-size="14" lengthAdjust="spacing" textLength="32" x="412" y="325.9766">yaml</text><path d="M352,433.6621 L362,433.6621 C377,433.6621 377,320.6855 392,320.6855 L402,320.6855 " fill="none" style="stroke:#181818;stroke-width:1.0;"/><rect fill="#F1F1F1" height="36.4883" rx="12.5" ry="12.5" style="stroke:#181818;stroke-width:1.5;" width="156" x="402" y="358.9297"/><text fill="#000000" font-family="sans-serif" font-size="14" lengthAdjust="spacing" textLength="136" x="412" y="382.4648">group/version/kind</text><path d="M352,433.6621 L362,433.6621 C377,433.6621 377,377.1738 392,377.1738 L402,377.1738 " fill="none" style="stroke:#181818;stroke-width:1.0;"/><rect fill="#F1F1F1" height="36.4883" rx="12.5" ry="12.5" style="stroke:#181818;stroke-width:1.5;" width="54" x="402" y="415.418"/><text fill="#000000" font-family="sans-serif" font-size="14" lengthAdjust="spacing" textLength="34" x="412" y="438.9531">meta</text><path d="M352,433.6621 L362,433.6621 C377,433.6621 377,433.6621 392,433.6621 L402,433.6621 " fill="none" style="stroke:#181818;stroke-width:1.0;"/><rect fill="#F1F1F1" height="36.4883" rx="12.5" ry="12.5" style="stroke:#181818;stroke-width:1.5;" width="51" x="402" y="471.9063"/><text fill="#000000" font-family="sans-serif" font-size="14" lengthAdjust="spacing" textLength="31" x="412" y="495.4414">spec</text><path d="M352,433.6621 L362,433.6621 C377,433.6621 377,490.1504 392,490.1504 L402,490.1504 " fill="none" style="stroke:#181818;stroke-width:1.0;"/><rect fill="#F1F1F1" height="36.4883" rx="12.5" ry="12.5" style="stroke:#181818;stroke-width:1.5;" width="96" x="402" y="528.3945"/><text fill="#000000" font-family="sans-serif" font-size="14" lengthAdjust="spacing" textLength="76" x="412" y="551.9297">sub(status)</text><path d="M352,433.6621 L362,433.6621 C377,433.6621 377,546.6387 392,546.6387 L402,546.6387 " fill="none" style="stroke:#181818;stroke-width:1.0;"/><path d="M222,433.6621 L232,433.6621 C247,433.6621 247,433.6621 262,433.6621 L272,433.6621 " fill="none" style="stroke:#181818;stroke-width:1.0;"/><path d="M60,320.6855 L70,320.6855 C85,320.6855 85,433.6621 100,433.6621 L110,433.6621 " fill="none" style="stroke:#181818;stroke-width:1.0;"/><rect fill="#F1F1F1" height="36.4883" rx="12.5" ry="12.5" style="stroke:#181818;stroke-width:1.5;" width="51" x="110" y="584.8828"/><text fill="#000000" font-family="sans-serif" font-size="14" lengthAdjust="spacing" textLength="31" x="120" y="608.418">auth</text><rect fill="#F1F1F1" height="36.4883" rx="12.5" ry="12.5" style="stroke:#181818;stroke-width:1.5;" width="50" x="211" y="584.8828"/><text fill="#000000" font-family="sans-serif" font-size="14" lengthAdjust="spacing" textLength="30" x="221" y="608.418">rbac</text><path d="M161,603.127 L171,603.127 C186,603.127 186,603.127 201,603.127 L211,603.127 " fill="none" style="stroke:#181818;stroke-width:1.0;"/><path d="M60,320.6855 L70,320.6855 C85,320.6855 85,603.127 100,603.127 L110,603.127 " fill="none" style="stroke:#181818;stroke-width:1.0;"/><rect fill="#F1F1F1" height="36.4883" rx="12.5" ry="12.5" style="stroke:#181818;stroke-width:1.5;" width="87" x="10" y="937.9346"/><text fill="#000000" font-family="sans-serif" font-size="14" lengthAdjust="spacing" textLength="67" x="20" y="961.4697">resources</text><rect fill="#F1F1F1" height="36.4883" rx="12.5" ry="12.5" style="stroke:#181818;stroke-width:1.5;" width="50" x="147" y="810.8359"/><text fill="#000000" font-family="sans-serif" font-size="14" lengthAdjust="spacing" textLength="30" x="157" y="834.3711">core</text><rect fill="#F1F1F1" height="36.4883" rx="12.5" ry="12.5" style="stroke:#181818;stroke-width:1.5;" width="97" x="247" y="641.3711"/><text fill="#000000" font-family="sans-serif" font-size="14" lengthAdjust="spacing" textLength="77" x="257" y="664.9063">namespace</text><path d="M197,829.0801 L207,829.0801 C222,829.0801 222,659.6152 237,659.6152 L247,659.6152 " fill="none" style="stroke:#181818;stroke-width:1.0;"/><rect fill="#F1F1F1" height="36.4883" rx="12.5" ry="12.5" style="stroke:#181818;stroke-width:1.5;" width="47" x="247" y="697.8594"/><text fill="#000000" font-family="sans-serif" font-size="14" lengthAdjust="spacing" textLength="27" x="257" y="721.3945">pod</text><path d="M197,829.0801 L207,829.0801 C222,829.0801 222,716.1035 237,716.1035 L247,716.1035 " fill="none" style="stroke:#181818;stroke-width:1.0;"/><rect fill="#F1F1F1" height="36.4883" rx="12.5" ry="12.5" style="stroke:#181818;stroke-width:1.5;" width="66" x="247" y="754.3477"/><text fill="#000000" font-family="sans-serif" font-size="14" lengthAdjust="spacing" textLength="46" x="257" y="777.8828">deploy</text><path d="M197,829.0801 L207,829.0801 C222,829.0801 222,772.5918 237,772.5918 L247,772.5918 " fill="none" style="stroke:#181818;stroke-width:1.0;"/><rect fill="#F1F1F1" height="36.4883" rx="12.5" ry="12.5" style="stroke:#181818;stroke-width:1.5;" width="86" x="247" y="810.8359"/><text fill="#000000" font-family="sans-serif" font-size="14" lengthAdjust="spacing" textLength="66" x="257" y="834.3711">replicaset</text><path d="M197,829.0801 L207,829.0801 C222,829.0801 222,829.0801 237,829.0801 L247,829.0801 " fill="none" style="stroke:#181818;stroke-width:1.0;"/><rect fill="#F1F1F1" height="36.4883" rx="12.5" ry="12.5" style="stroke:#181818;stroke-width:1.5;" width="93" x="247" y="867.3242"/><text fill="#000000" font-family="sans-serif" font-size="14" lengthAdjust="spacing" textLength="73" x="257" y="890.8594">configmap</text><path d="M197,829.0801 L207,829.0801 C222,829.0801 222,885.5684 237,885.5684 L247,885.5684 " fill="none" style="stroke:#181818;stroke-width:1.0;"/><rect fill="#F1F1F1" height="36.4883" rx="12.5" ry="12.5" style="stroke:#181818;stroke-width:1.5;" width="61" x="247" y="923.8125"/><text fill="#000000" font-family="sans-serif" font-size="14" lengthAdjust="spacing" textLength="41" x="257" y="947.3477">secret</text><path d="M197,829.0801 L207,829.0801 C222,829.0801 222,942.0566 237,942.0566 L247,942.0566 " fill="none" style="stroke:#181818;stroke-width:1.0;"/><rect fill="#F1F1F1" height="36.4883" rx="12.5" ry="12.5" style="stroke:#181818;stroke-width:1.5;" width="121" x="247" y="980.3008"/><text fill="#000000" font-family="sans-serif" font-size="14" lengthAdjust="spacing" textLength="101" x="257" y="1003.8359">serviceaccount</text><path d="M197,829.0801 L207,829.0801 C222,829.0801 222,998.5449 237,998.5449 L247,998.5449 " fill="none" style="stroke:#181818;stroke-width:1.0;"/><path d="M97,956.1787 L107,956.1787 C122,956.1787 122,829.0801 137,829.0801 L147,829.0801 " fill="none" style="stroke:#181818;stroke-width:1.0;"/><rect fill="#F1F1F1" height="36.4883" rx="12.5" ry="12.5" style="stroke:#181818;stroke-width:1.5;" width="76" x="147" y="1065.0332"/><text fill="#000000" font-family="sans-serif" font-size="14" lengthAdjust="spacing" textLength="56" x="157" y="1088.5684">network</text><rect fill="#F1F1F1" height="36.4883" rx="12.5" ry="12.5" style="stroke:#181818;stroke-width:1.5;" width="41" x="273" y="1036.7891"/><text fill="#000000" font-family="sans-serif" font-size="14" lengthAdjust="spacing" textLength="21" x="283" y="1060.3242">svc</text><path d="M223,1083.2773 L233,1083.2773 C248,1083.2773 248,1055.0332 263,1055.0332 L273,1055.0332 " fill="none" style="stroke:#181818;stroke-width:1.0;"/><rect fill="#F1F1F1" height="36.4883" rx="12.5" ry="12.5" style="stroke:#181818;stroke-width:1.5;" width="70" x="273" y="1093.2773"/><text fill="#000000" font-family="sans-serif" font-size="14" lengthAdjust="spacing" textLength="50" x="283" y="1116.8125">ingress</text><path d="M223,1083.2773 L233,1083.2773 C248,1083.2773 248,1111.5215 263,1111.5215 L273,1111.5215 " fill="none" style="stroke:#181818;stroke-width:1.0;"/><path d="M97,956.1787 L107,956.1787 C122,956.1787 122,1083.2773 137,1083.2773 L147,1083.2773 " fill="none" style="stroke:#181818;stroke-width:1.0;"/><rect fill="#F1F1F1" height="36.4883" rx="12.5" ry="12.5" style="stroke:#181818;stroke-width:1.5;" width="58" x="147" y="1178.0098"/><text fill="#000000" font-family="sans-serif" font-size="14" lengthAdjust="spacing" textLength="38" x="157" y="1201.5449">batch</text><rect fill="#F1F1F1" height="36.4883" rx="12.5" ry="12.5" style="stroke:#181818;stroke-width:1.5;" width="42" x="255" y="1149.7656"/><text fill="#000000" font-family="sans-serif" font-size="14" lengthAdjust="spacing" textLength="22" x="265" y="1173.3008">job</text><path d="M205,1196.2539 L215,1196.2539 C230,1196.2539 230,1168.0098 245,1168.0098 L255,1168.0098 " fill="none" style="stroke:#181818;stroke-width:1.0;"/><rect fill="#F1F1F1" height="36.4883" rx="12.5" ry="12.5" style="stroke:#181818;stroke-width:1.5;" width="73" x="255" y="1206.2539"/><text fill="#000000" font-family="sans-serif" font-size="14" lengthAdjust="spacing" textLength="53" x="265" y="1229.7891">cronjob</text><path d="M205,1196.2539 L215,1196.2539 C230,1196.2539 230,1224.498 245,1224.498 L255,1224.498 " fill="none" style="stroke:#181818;stroke-width:1.0;"/><path d="M97,956.1787 L107,956.1787 C122,956.1787 122,1196.2539 137,1196.2539 L147,1196.2539 " fill="none" style="stroke:#181818;stroke-width:1.0;"/><rect fill="#F1F1F1" height="36.4883" rx="12.5" ry="12.5" style="stroke:#181818;stroke-width:1.5;" width="42" x="147" y="1234.498"/><text fill="#000000" font-family="sans-serif" font-size="14" lengthAdjust="spacing" textLength="22" x="157" y="1258.0332">crd</text><path d="M97,956.1787 L107,956.1787 C122,956.1787 122,1252.7422 137,1252.7422 L147,1252.7422 " fill="none" style="stroke:#181818;stroke-width:1.0;"/><rect fill="#F1F1F1" height="36.4883" rx="12.5" ry="12.5" style="stroke:#181818;stroke-width:1.5;" width="66" x="10" y="1742.8926"/><text fill="#000000" font-family="sans-serif" font-size="14" lengthAdjust="spacing" textLength="46" x="20" y="1766.4277">deploy</text><rect fill="#F1F1F1" height="36.4883" rx="12.5" ry="12.5" style="stroke:#181818;stroke-width:1.5;" width="117" x="126" y="1290.9863"/><text fill="#000000" font-family="sans-serif" font-size="14" lengthAdjust="spacing" textLength="97" x="136" y="1314.5215">resource/limit</text><path d="M76,1761.1367 L86,1761.1367 C101,1761.1367 101,1309.2305 116,1309.2305 L126,1309.2305 " fill="none" style="stroke:#181818;stroke-width:1.0;"/><rect fill="#F1F1F1" height="36.4883" rx="12.5" ry="12.5" style="stroke:#181818;stroke-width:1.5;" width="147" x="126" y="1347.4746"/><text fill="#000000" font-family="sans-serif" font-size="14" lengthAdjust="spacing" textLength="127" x="136" y="1371.0098">readiness/liveness</text><path d="M76,1761.1367 L86,1761.1367 C101,1761.1367 101,1365.7188 116,1365.7188 L126,1365.7188 " fill="none" style="stroke:#181818;stroke-width:1.0;"/><rect fill="#F1F1F1" height="36.4883" rx="12.5" ry="12.5" style="stroke:#181818;stroke-width:1.5;" width="125" x="126" y="1403.9629"/><text fill="#000000" font-family="sans-serif" font-size="14" lengthAdjust="spacing" textLength="105" x="136" y="1427.498">command/args</text><path d="M76,1761.1367 L86,1761.1367 C101,1761.1367 101,1422.207 116,1422.207 L126,1422.207 " fill="none" style="stroke:#181818;stroke-width:1.0;"/><rect fill="#F1F1F1" height="36.4883" rx="12.5" ry="12.5" style="stroke:#181818;stroke-width:1.5;" width="51" x="126" y="1460.4512"/><text fill="#000000" font-family="sans-serif" font-size="14" lengthAdjust="spacing" textLength="31" x="136" y="1483.9863">envs</text><path d="M76,1761.1367 L86,1761.1367 C101,1761.1367 101,1478.6953 116,1478.6953 L126,1478.6953 " fill="none" style="stroke:#181818;stroke-width:1.0;"/><rect fill="#F1F1F1" height="36.4883" rx="12.5" ry="12.5" style="stroke:#181818;stroke-width:1.5;" width="185" x="126" y="1516.9395"/><text fill="#000000" font-family="sans-serif" font-size="14" lengthAdjust="spacing" textLength="165" x="136" y="1540.4746">volumes/volumeMounts</text><path d="M76,1761.1367 L86,1761.1367 C101,1761.1367 101,1535.1836 116,1535.1836 L126,1535.1836 " fill="none" style="stroke:#181818;stroke-width:1.0;"/><rect fill="#F1F1F1" height="36.4883" rx="12.5" ry="12.5" style="stroke:#181818;stroke-width:1.5;" width="123" x="126" y="1573.4277"/><text fill="#000000" font-family="sans-serif" font-size="14" lengthAdjust="spacing" textLength="103" x="136" y="1596.9629">serviceAccount</text><path d="M76,1761.1367 L86,1761.1367 C101,1761.1367 101,1591.6719 116,1591.6719 L126,1591.6719 " fill="none" style="stroke:#181818;stroke-width:1.0;"/><rect fill="#F1F1F1" height="36.4883" rx="12.5" ry="12.5" style="stroke:#181818;stroke-width:1.5;" width="128" x="126" y="1629.916"/><text fill="#000000" font-family="sans-serif" font-size="14" lengthAdjust="spacing" textLength="108" x="136" y="1653.4512">securityContext</text><path d="M76,1761.1367 L86,1761.1367 C101,1761.1367 101,1648.1602 116,1648.1602 L126,1648.1602 " fill="none" style="stroke:#181818;stroke-width:1.0;"/><rect fill="#F1F1F1" height="36.4883" rx="12.5" ry="12.5" style="stroke:#181818;stroke-width:1.5;" width="92" x="126" y="1714.6484"/><text fill="#000000" font-family="sans-serif" font-size="14" lengthAdjust="spacing" textLength="72" x="136" y="1738.1836">containers</text><rect fill="#F1F1F1" height="36.4883" rx="12.5" ry="12.5" style="stroke:#181818;stroke-width:1.5;" width="42" x="268" y="1686.4043"/><text fill="#000000" font-family="sans-serif" font-size="14" lengthAdjust="spacing" textLength="22" x="278" y="1709.9395">init</text><path d="M218,1732.8926 L228,1732.8926 C243,1732.8926 243,1704.6484 258,1704.6484 L268,1704.6484 " fill="none" style="stroke:#181818;stroke-width:1.0;"/><rect fill="#F1F1F1" height="36.4883" rx="12.5" ry="12.5" style="stroke:#181818;stroke-width:1.5;" width="69" x="268" y="1742.8926"/><text fill="#000000" font-family="sans-serif" font-size="14" lengthAdjust="spacing" textLength="49" x="278" y="1766.4277">sidecar</text><path d="M218,1732.8926 L228,1732.8926 C243,1732.8926 243,1761.1367 258,1761.1367 L268,1761.1367 " fill="none" style="stroke:#181818;stroke-width:1.0;"/><path d="M76,1761.1367 L86,1761.1367 C101,1761.1367 101,1732.8926 116,1732.8926 L126,1732.8926 " fill="none" style="stroke:#181818;stroke-width:1.0;"/><rect fill="#F1F1F1" height="36.4883" rx="12.5" ry="12.5" style="stroke:#181818;stroke-width:1.5;" width="109" x="126" y="1827.625"/><text fill="#000000" font-family="sans-serif" font-size="14" lengthAdjust="spacing" textLength="89" x="136" y="1851.1602">nodeselector</text><rect fill="#F1F1F1" height="36.4883" rx="12.5" ry="12.5" style="stroke:#181818;stroke-width:1.5;" width="139" x="285" y="1799.3809"/><text fill="#000000" font-family="sans-serif" font-size="14" lengthAdjust="spacing" textLength="119" x="295" y="1822.916">taints/tolerations</text><path d="M235,1845.8691 L245,1845.8691 C260,1845.8691 260,1817.625 275,1817.625 L285,1817.625 " fill="none" style="stroke:#181818;stroke-width:1.0;"/><rect fill="#F1F1F1" height="36.4883" rx="12.5" ry="12.5" style="stroke:#181818;stroke-width:1.5;" width="67" x="285" y="1855.8691"/><text fill="#000000" font-family="sans-serif" font-size="14" lengthAdjust="spacing" textLength="47" x="295" y="1879.4043">affinity</text><path d="M235,1845.8691 L245,1845.8691 C260,1845.8691 260,1874.1133 275,1874.1133 L285,1874.1133 " fill="none" style="stroke:#181818;stroke-width:1.0;"/><path d="M76,1761.1367 L86,1761.1367 C101,1761.1367 101,1845.8691 116,1845.8691 L126,1845.8691 " fill="none" style="stroke:#181818;stroke-width:1.0;"/><rect fill="#F1F1F1" height="36.4883" rx="12.5" ry="12.5" style="stroke:#181818;stroke-width:1.5;" width="54" x="126" y="2053.5781"/><text fill="#000000" font-family="sans-serif" font-size="14" lengthAdjust="spacing" textLength="34" x="136" y="2077.1133">helm</text><rect fill="#F1F1F1" height="36.4883" rx="12.5" ry="12.5" style="stroke:#181818;stroke-width:1.5;" width="106" x="230" y="1968.8457"/><text fill="#000000" font-family="sans-serif" font-size="14" lengthAdjust="spacing" textLength="86" x="240" y="1992.3809">go-template</text><rect fill="#F1F1F1" height="36.4883" rx="12.5" ry="12.5" style="stroke:#181818;stroke-width:1.5;" width="63" x="386" y="1912.3574"/><text fill="#000000" font-family="sans-serif" font-size="14" lengthAdjust="spacing" textLength="43" x="396" y="1935.8926">values</text><path d="M336,1987.0898 L346,1987.0898 C361,1987.0898 361,1930.6016 376,1930.6016 L386,1930.6016 " fill="none" style="stroke:#181818;stroke-width:1.0;"/><rect fill="#F1F1F1" height="36.4883" rx="12.5" ry="12.5" style="stroke:#181818;stroke-width:1.5;" width="71" x="386" y="1968.8457"/><text fill="#000000" font-family="sans-serif" font-size="14" lengthAdjust="spacing" textLength="51" x="396" y="1992.3809">helpers</text><path d="M336,1987.0898 L346,1987.0898 C361,1987.0898 361,1987.0898 376,1987.0898 L386,1987.0898 " fill="none" style="stroke:#181818;stroke-width:1.0;"/><rect fill="#F1F1F1" height="36.4883" rx="12.5" ry="12.5" style="stroke:#181818;stroke-width:1.5;" width="57" x="386" y="2025.334"/><text fill="#000000" font-family="sans-serif" font-size="14" lengthAdjust="spacing" textLength="37" x="396" y="2048.8691">funcs</text><path d="M336,1987.0898 L346,1987.0898 C361,1987.0898 361,2043.5781 376,2043.5781 L386,2043.5781 " fill="none" style="stroke:#181818;stroke-width:1.0;"/><path d="M180,2071.8223 L190,2071.8223 C205,2071.8223 205,1987.0898 220,1987.0898 L230,1987.0898 " fill="none" style="stroke:#181818;stroke-width:1.0;"/><rect fill="#F1F1F1" height="36.4883" rx="12.5" ry="12.5" style="stroke:#181818;stroke-width:1.5;" width="77" x="230" y="2025.334"/><text fill="#000000" font-family="sans-serif" font-size="14" lengthAdjust="spacing" textLength="57" x="240" y="2048.8691">package</text><path d="M180,2071.8223 L190,2071.8223 C205,2071.8223 205,2043.5781 220,2043.5781 L230,2043.5781 " fill="none" style="stroke:#181818;stroke-width:1.0;"/><rect fill="#F1F1F1" height="36.4883" rx="12.5" ry="12.5" style="stroke:#181818;stroke-width:1.5;" width="62" x="230" y="2081.8223"/><text fill="#000000" font-family="sans-serif" font-size="14" lengthAdjust="spacing" textLength="42" x="240" y="2105.3574">hooks</text><path d="M180,2071.8223 L190,2071.8223 C205,2071.8223 205,2100.0664 220,2100.0664 L230,2100.0664 " fill="none" style="stroke:#181818;stroke-width:1.0;"/><rect fill="#F1F1F1" height="36.4883" rx="12.5" ry="12.5" style="stroke:#181818;stroke-width:1.5;" width="129" x="230" y="2138.3105"/><text fill="#000000" font-family="sans-serif" font-size="14" lengthAdjust="spacing" textLength="109" x="240" y="2161.8457">history/rollback</text><path d="M180,2071.8223 L190,2071.8223 C205,2071.8223 205,2156.5547 220,2156.5547 L230,2156.5547 " fill="none" style="stroke:#181818;stroke-width:1.0;"/><rect fill="#F1F1F1" height="36.4883" rx="12.5" ry="12.5" style="stroke:#181818;stroke-width:1.5;" width="45" x="230" y="2194.7988"/><text fill="#000000" font-family="sans-serif" font-size="14" lengthAdjust="spacing" textLength="25" x="240" y="2218.334">test</text><path d="M180,2071.8223 L190,2071.8223 C205,2071.8223 205,2213.043 220,2213.043 L230,2213.043 " fill="none" style="stroke:#181818;stroke-width:1.0;"/><path d="M76,1761.1367 L86,1761.1367 C101,1761.1367 101,2071.8223 116,2071.8223 L126,2071.8223 " fill="none" style="stroke:#181818;stroke-width:1.0;"/><rect fill="#F1F1F1" height="36.4883" rx="12.5" ry="12.5" style="stroke:#181818;stroke-width:1.5;" width="35" x="10" y="2477.2402"/><text fill="#000000" font-family="sans-serif" font-size="14" lengthAdjust="spacing" textLength="15" x="20" y="2500.7754">cli</text><rect fill="#F1F1F1" height="36.4883" rx="12.5" ry="12.5" style="stroke:#181818;stroke-width:1.5;" width="70" x="95" y="2448.9961"/><text fill="#000000" font-family="sans-serif" font-size="14" lengthAdjust="spacing" textLength="50" x="105" y="2472.5313">kubectl</text><rect fill="#F1F1F1" height="36.4883" rx="12.5" ry="12.5" style="stroke:#181818;stroke-width:1.5;" width="351" x="215" y="2251.2871"/><text fill="#000000" font-family="sans-serif" font-size="14" lengthAdjust="spacing" textLength="331" x="225" y="2274.8223">apply/create/get/describe/replace/patch/delete</text><path d="M165,2467.2402 L175,2467.2402 C190,2467.2402 190,2269.5313 205,2269.5313 L215,2269.5313 " fill="none" style="stroke:#181818;stroke-width:1.0;"/><rect fill="#F1F1F1" height="36.4883" rx="12.5" ry="12.5" style="stroke:#181818;stroke-width:1.5;" width="49" x="215" y="2307.7754"/><text fill="#000000" font-family="sans-serif" font-size="14" lengthAdjust="spacing" textLength="29" x="225" y="2331.3105">logs</text><path d="M165,2467.2402 L175,2467.2402 C190,2467.2402 190,2326.0195 205,2326.0195 L215,2326.0195 " fill="none" style="stroke:#181818;stroke-width:1.0;"/><rect fill="#F1F1F1" height="36.4883" rx="12.5" ry="12.5" style="stroke:#181818;stroke-width:1.5;" width="167" x="215" y="2364.2637"/><text fill="#000000" font-family="sans-serif" font-size="14" lengthAdjust="spacing" textLength="147" x="225" y="2387.7988">exec/attach/cp/rsync</text><path d="M165,2467.2402 L175,2467.2402 C190,2467.2402 190,2382.5078 205,2382.5078 L215,2382.5078 " fill="none" style="stroke:#181818;stroke-width:1.0;"/><rect fill="#F1F1F1" height="36.4883" rx="12.5" ry="12.5" style="stroke:#181818;stroke-width:1.5;" width="158" x="215" y="2420.752"/><text fill="#000000" font-family="sans-serif" font-size="14" lengthAdjust="spacing" textLength="138" x="225" y="2444.2871">port-forward/proxy</text><path d="M165,2467.2402 L175,2467.2402 C190,2467.2402 190,2438.9961 205,2438.9961 L215,2438.9961 " fill="none" style="stroke:#181818;stroke-width:1.0;"/><rect fill="#F1F1F1" height="36.4883" rx="12.5" ry="12.5" style="stroke:#181818;stroke-width:1.5;" width="71" x="215" y="2477.2402"/><text fill="#000000" font-family="sans-serif" font-size="14" lengthAdjust="spacing" textLength="51" x="225" y="2500.7754">explain</text><path d="M165,2467.2402 L175,2467.2402 C190,2467.2402 190,2495.4844 205,2495.4844 L215,2495.4844 " fill="none" style="stroke:#181818;stroke-width:1.0;"/><rect fill="#F1F1F1" height="36.4883" rx="12.5" ry="12.5" style="stroke:#181818;stroke-width:1.5;" width="116" x="215" y="2533.7285"/><text fill="#000000" font-family="sans-serif" font-size="14" lengthAdjust="spacing" textLength="96" x="225" y="2557.2637">api-resources</text><path d="M165,2467.2402 L175,2467.2402 C190,2467.2402 190,2551.9727 205,2551.9727 L215,2551.9727 " fill="none" style="stroke:#181818;stroke-width:1.0;"/><rect fill="#F1F1F1" height="36.4883" rx="12.5" ry="12.5" style="stroke:#181818;stroke-width:1.5;" width="64" x="215" y="2590.2168"/><text fill="#000000" font-family="sans-serif" font-size="14" lengthAdjust="spacing" textLength="44" x="225" y="2613.752">debug</text><path d="M165,2467.2402 L175,2467.2402 C190,2467.2402 190,2608.4609 205,2608.4609 L215,2608.4609 " fill="none" style="stroke:#181818;stroke-width:1.0;"/><rect fill="#F1F1F1" height="36.4883" rx="12.5" ry="12.5" style="stroke:#181818;stroke-width:1.5;" width="63" x="215" y="2646.7051"/><text fill="#000000" font-family="sans-serif" font-size="14" lengthAdjust="spacing" textLength="43" x="225" y="2670.2402">config</text><rect fill="#F1F1F1" height="36.4883" rx="12.5" ry="12.5" style="stroke:#181818;stroke-width:1.5;" width="97" x="328" y="2646.7051"/><text fill="#000000" font-family="sans-serif" font-size="14" lengthAdjust="spacing" textLength="77" x="338" y="2670.2402">kubeconfig</text><path d="M278,2664.9492 L288,2664.9492 C303,2664.9492 303,2664.9492 318,2664.9492 L328,2664.9492 " fill="none" style="stroke:#181818;stroke-width:1.0;"/><path d="M165,2467.2402 L175,2467.2402 C190,2467.2402 190,2664.9492 205,2664.9492 L215,2664.9492 " fill="none" style="stroke:#181818;stroke-width:1.0;"/><path d="M45,2495.4844 L55,2495.4844 C70,2495.4844 70,2467.2402 85,2467.2402 L95,2467.2402 " fill="none" style="stroke:#181818;stroke-width:1.0;"/><rect fill="#F1F1F1" height="36.4883" rx="12.5" ry="12.5" style="stroke:#181818;stroke-width:1.5;" width="50" x="95" y="2505.4844"/><text fill="#000000" font-family="sans-serif" font-size="14" lengthAdjust="spacing" textLength="30" x="105" y="2529.0195">kind</text><path d="M45,2495.4844 L55,2495.4844 C70,2495.4844 70,2523.7285 85,2523.7285 L95,2523.7285 " fill="none" style="stroke:#181818;stroke-width:1.0;"/><rect fill="#F1F1F1" height="36.4883" rx="12.5" ry="12.5" style="stroke:#181818;stroke-width:1.5;" width="84" x="95" y="2703.1934"/><text fill="#000000" font-family="sans-serif" font-size="14" lengthAdjust="spacing" textLength="64" x="105" y="2726.7285">minikube</text><path d="M45,2495.4844 L55,2495.4844 C70,2495.4844 70,2721.4375 85,2721.4375 L95,2721.4375 " fill="none" style="stroke:#181818;stroke-width:1.0;"/><rect fill="#F1F1F1" height="36.4883" rx="12.5" ry="12.5" style="stroke:#181818;stroke-width:1.5;" width="57" x="10" y="2957.3906"/><text fill="#000000" font-family="sans-serif" font-size="14" lengthAdjust="spacing" textLength="37" x="20" y="2980.9258">other</text><rect fill="#F1F1F1" height="36.4883" rx="12.5" ry="12.5" style="stroke:#181818;stroke-width:1.5;" width="110" x="117" y="2759.6816"/><text fill="#000000" font-family="sans-serif" font-size="14" lengthAdjust="spacing" textLength="90" x="127" y="2783.2168">imagePullSec</text><path d="M67,2975.6348 L77,2975.6348 C92,2975.6348 92,2777.9258 107,2777.9258 L117,2777.9258 " fill="none" style="stroke:#181818;stroke-width:1.0;"/><rect fill="#F1F1F1" height="36.4883" rx="12.5" ry="12.5" style="stroke:#181818;stroke-width:1.5;" width="120" x="117" y="2816.1699"/><text fill="#000000" font-family="sans-serif" font-size="14" lengthAdjust="spacing" textLength="100" x="127" y="2839.7051">resourcequota</text><path d="M67,2975.6348 L77,2975.6348 C92,2975.6348 92,2834.4141 107,2834.4141 L117,2834.4141 " fill="none" style="stroke:#181818;stroke-width:1.0;"/><rect fill="#F1F1F1" height="36.4883" rx="12.5" ry="12.5" style="stroke:#181818;stroke-width:1.5;" width="90" x="117" y="2872.6582"/><text fill="#000000" font-family="sans-serif" font-size="14" lengthAdjust="spacing" textLength="70" x="127" y="2896.1934">limitrange</text><path d="M67,2975.6348 L77,2975.6348 C92,2975.6348 92,2890.9023 107,2890.9023 L117,2890.9023 " fill="none" style="stroke:#181818;stroke-width:1.0;"/><rect fill="#F1F1F1" height="36.4883" rx="12.5" ry="12.5" style="stroke:#181818;stroke-width:1.5;" width="133" x="117" y="2929.1465"/><text fill="#000000" font-family="sans-serif" font-size="14" lengthAdjust="spacing" textLength="113" x="127" y="2952.6816">debug container</text><path d="M67,2975.6348 L77,2975.6348 C92,2975.6348 92,2947.3906 107,2947.3906 L117,2947.3906 " fill="none" style="stroke:#181818;stroke-width:1.0;"/><rect fill="#F1F1F1" height="36.4883" rx="12.5" ry="12.5" style="stroke:#181818;stroke-width:1.5;" width="67" x="117" y="3013.8789"/><text fill="#000000" font-family="sans-serif" font-size="14" lengthAdjust="spacing" textLength="47" x="127" y="3037.4141">testing</text><rect fill="#F1F1F1" height="36.4883" rx="12.5" ry="12.5" style="stroke:#181818;stroke-width:1.5;" width="90" x="234" y="2985.6348"/><text fill="#000000" font-family="sans-serif" font-size="14" lengthAdjust="spacing" textLength="70" x="244" y="3009.1699">bluegreen</text><path d="M184,3032.123 L194,3032.123 C209,3032.123 209,3003.8789 224,3003.8789 L234,3003.8789 " fill="none" style="stroke:#181818;stroke-width:1.0;"/><rect fill="#F1F1F1" height="36.4883" rx="12.5" ry="12.5" style="stroke:#181818;stroke-width:1.5;" width="65" x="234" y="3042.123"/><text fill="#000000" font-family="sans-serif" font-size="14" lengthAdjust="spacing" textLength="45" x="244" y="3065.6582">canary</text><path d="M184,3032.123 L194,3032.123 C209,3032.123 209,3060.3672 224,3060.3672 L234,3060.3672 " fill="none" style="stroke:#181818;stroke-width:1.0;"/><path d="M67,2975.6348 L77,2975.6348 C92,2975.6348 92,3032.123 107,3032.123 L117,3032.123 " fill="none" style="stroke:#181818;stroke-width:1.0;"/><rect fill="#F1F1F1" height="36.4883" rx="12.5" ry="12.5" style="stroke:#181818;stroke-width:1.5;" width="190" x="117" y="3098.6113"/><text fill="#000000" font-family="sans-serif" font-size="14" lengthAdjust="spacing" textLength="170" x="127" y="3122.1465">monolith vs microservice</text><path d="M67,2975.6348 L77,2975.6348 C92,2975.6348 92,3116.8555 107,3116.8555 L117,3116.8555 " fill="none" style="stroke:#181818;stroke-width:1.0;"/><rect fill="#F1F1F1" height="36.4883" rx="12.5" ry="12.5" style="stroke:#181818;stroke-width:1.5;" width="78" x="117" y="3155.0996"/><text fill="#000000" font-family="sans-serif" font-size="14" lengthAdjust="spacing" textLength="58" x="127" y="3178.6348">12factor</text><path d="M67,2975.6348 L77,2975.6348 C92,2975.6348 92,3173.3438 107,3173.3438 L117,3173.3438 " fill="none" style="stroke:#181818;stroke-width:1.0;"/><!--SRC=[JLHDKzmm33sJN-7ZmioIGWj3zqGBRMU0dJ9iuQuusiHTnqvjEKl-VUMFdULaMOgb9xsdt7e2HuCoxG1ZLPq9QHrM9sTYtmFL-twEjhJ3Q0qQyjK9Ns5KwKIIRJAyx35RSaZ7BZIeaU9RXvxYYuLqeJrDKNRPu2INYRSP1fsjpjamrXCwhwofTumf-mSao9OVKHOhD0k6Ji6VnYeGgC-v6v2nZKCDd_77djWmCA0VGURRQ3Fe5aTjvm9jr4g2ZzZJGxDLNPnCgedIbO17Doc98AKD9lLfaFRMxN9qakbKfcCS2K8393F2lxR9kPqroOvc6p4VS1pHrreDgemHMcKu6RicD2Kh4pE0QMjmNRgZcT8vMHsuqpgVwuWn-GliRqVOt5DmYkOxQmZVAISr15pB-TA4AZsh5YMurAnjqJF3agnBiVY0V4rMemDY-efIjjluFFNKeyxYwEoIS1WrK57013f4eaxoLsEkp9TjC38dOivsq6NQUcjtsTihpm3csbcjcVSyV6B19I5hLHKfIj95kAEUQoQHIzSTKirTIASQh2FlB8jwZ3IncyMRYsdRvLhuZh868k2u76ldPoEBYXmjjzRjmRNrwEpxNBxdZCeS5cRvGP19SateFaWizvkmbZlVqWAm_7c4CHARijHZOa0DF8xdeFKcRiHHCV-2ZSl2mADo79WkRNEgTsIsAdDYWIOG3HF0KiKCLu81bpWRhB5QKIycpp1OiKL0CNPnkON4VtMB_FSu_46UDHXwNJ-9iiVYulpoq-Ndyul59XZn04PSVXKNLwkhczNLjLXl7aKCdrQBNyzF8lSWMkQLQGbHIAVL0qmWNbYlQi2L-3sYURX_F3Z43pCftgI1_qxLmzlw-C7rb-LtHMB3YD69jtLrZri8clY5jBnBtKgy_lcvlAcUU4Y1fxaIBbHtSJ7Sl18lh_y1]--></g></svg>