<?xml version="1.0" encoding="UTF-8" standalone="no"?>
<!-- Created with Inkscape (http://www.inkscape.org/) -->

<svg
   width="83.418015mm"
   height="73.957077mm"
   viewBox="0 0 83.418015 73.957076"
   version="1.1"
   id="svg546"
   inkscape:version="1.1.1 (c3084ef, 2021-09-22)"
   sodipodi:docname="container_evolution1.svg"
   xmlns:inkscape="http://www.inkscape.org/namespaces/inkscape"
   xmlns:sodipodi="http://sodipodi.sourceforge.net/DTD/sodipodi-0.dtd"
   xmlns="http://www.w3.org/2000/svg"
   xmlns:svg="http://www.w3.org/2000/svg">
  <sodipodi:namedview
     id="namedview548"
     pagecolor="#ffffff"
     bordercolor="#666666"
     borderopacity="1.0"
     inkscape:pageshadow="2"
     inkscape:pageopacity="0.0"
     inkscape:pagecheckerboard="0"
     inkscape:document-units="mm"
     showgrid="false"
     inkscape:zoom="0.64052329"
     inkscape:cx="328.63754"
     inkscape:cy="160.02541"
     inkscape:window-width="1312"
     inkscape:window-height="969"
     inkscape:window-x="0"
     inkscape:window-y="25"
     inkscape:window-maximized="0"
     inkscape:current-layer="layer1" />
  <defs
     id="defs543" />
  <g
     inkscape:label="Слой 1"
     inkscape:groupmode="layer"
     id="layer1"
     transform="translate(-25.021137,-55.588336)">
    <path
       fill="#000000"
       fill-opacity="0"
       d="M -259.35157,-76.323689 H 137.08176 V 69.714509 h -396.43333 z"
       fill-rule="evenodd"
       id="path197"
       style="stroke-width:0.264583" />
    <path
       fill="#3d85c6"
       d="M 30.157487,96.223054 H 104.82415 V 112.81473 H 30.157487 Z"
       fill-rule="evenodd"
       id="path199"
       style="stroke-width:0.264583" />
    <path
       fill="#000000"
       d="m 57.995787,106.66681 q 0,0.0289 -0.0207,0.0538 -0.0165,0.0248 -0.0661,0.0413 -0.0455,0.0165 -0.12402,0.0248 -0.0744,0.0124 -0.19431,0.0124 -0.11989,0 -0.19843,-0.0124 -0.0786,-0.008 -0.12403,-0.0248 -0.0455,-0.0165 -0.0661,-0.0413 -0.0207,-0.0248 -0.0207,-0.0538 v -1.62058 h -1.50068 v 1.62058 q 0,0.0289 -0.0207,0.0538 -0.0165,0.0248 -0.062,0.0413 -0.0455,0.0165 -0.12403,0.0248 -0.0786,0.0124 -0.19843,0.0124 -0.11989,0 -0.19844,-0.0124 -0.0786,-0.008 -0.12402,-0.0248 -0.0455,-0.0165 -0.0661,-0.0413 -0.0207,-0.0248 -0.0207,-0.0538 v -3.79099 q 0,-0.0289 0.0207,-0.0537 0.0207,-0.0248 0.0661,-0.0413 0.0455,-0.0165 0.12402,-0.0248 0.0786,-0.008 0.19844,-0.008 0.11988,0 0.19843,0.008 0.0785,0.008 0.12403,0.0248 0.0455,0.0165 0.062,0.0413 0.0207,0.0248 0.0207,0.0537 v 1.47588 h 1.50068 v -1.47588 q 0,-0.0289 0.0207,-0.0537 0.0207,-0.0248 0.0661,-0.0413 0.0455,-0.0165 0.12403,-0.0248 0.0785,-0.008 0.19843,-0.008 0.11989,0 0.19431,0.008 0.0786,0.008 0.12402,0.0248 0.0496,0.0165 0.0661,0.0413 0.0207,0.0248 0.0207,0.0537 z m 3.1874,0.0165 q 0,0.0413 -0.0331,0.0661 -0.0289,0.0248 -0.0992,0.0372 -0.0661,0.0124 -0.1943,0.0124 -0.14056,0 -0.20671,-0.0124 -0.062,-0.0124 -0.0868,-0.0372 -0.0248,-0.0248 -0.0248,-0.0661 v -0.22325 q -0.17363,0.18604 -0.39274,0.28939 -0.21497,0.0992 -0.48369,0.0992 -0.21911,0 -0.40514,-0.0579 -0.1819,-0.0579 -0.31833,-0.1695 -0.13643,-0.11162 -0.21084,-0.27698 -0.0744,-0.1695 -0.0744,-0.39274 0,-0.24392 0.0951,-0.42168 0.0951,-0.17777 0.28112,-0.29353 0.19017,-0.11575 0.46716,-0.16949 0.28112,-0.0579 0.64905,-0.0579 h 0.26872 v -0.1695 q 0,-0.12816 -0.0248,-0.22738 -0.0248,-0.0992 -0.0868,-0.16123 -0.062,-0.0661 -0.16123,-0.0951 -0.0992,-0.0331 -0.24805,-0.0331 -0.19843,0 -0.35139,0.0455 -0.15297,0.0413 -0.27286,0.0951 -0.11575,0.0496 -0.1943,0.0951 -0.0786,0.0413 -0.12816,0.0413 -0.0331,0 -0.062,-0.0207 -0.0248,-0.0207 -0.0413,-0.062 -0.0165,-0.0413 -0.0289,-0.0992 -0.008,-0.0579 -0.008,-0.12816 0,-0.0992 0.0165,-0.15296 0.0165,-0.0579 0.0579,-0.0992 0.0455,-0.0455 0.15296,-0.0992 0.10749,-0.0579 0.25218,-0.10335 0.14883,-0.0455 0.31833,-0.0744 0.17363,-0.0289 0.35553,-0.0289 0.3266,0 0.55811,0.062 0.23151,0.062 0.38034,0.1943 0.14883,0.13229 0.21497,0.34313 0.0703,0.20671 0.0703,0.49196 z m -0.76894,-1.18649 h -0.29766 q -0.18603,0 -0.32246,0.0289 -0.13229,0.0289 -0.21498,0.0868 -0.0827,0.0537 -0.12402,0.13229 -0.0372,0.0785 -0.0372,0.1819 0,0.17363 0.10748,0.27285 0.11162,0.0992 0.30593,0.0992 0.16536,0 0.30179,-0.0827 0.14056,-0.0868 0.28112,-0.24805 z m 3.32073,-1.33119 q 0,0.11162 -0.008,0.1819 -0.004,0.0703 -0.0165,0.11162 -0.0124,0.0413 -0.0331,0.0579 -0.0165,0.0124 -0.0496,0.0124 -0.0248,0 -0.0579,-0.008 -0.0289,-0.0124 -0.0703,-0.0248 -0.0372,-0.0124 -0.0827,-0.0207 -0.0455,-0.0124 -0.10335,-0.0124 -0.062,0 -0.12816,0.0248 -0.0662,0.0248 -0.13642,0.0827 -0.0703,0.0537 -0.1447,0.14883 -0.0744,0.0909 -0.16123,0.22737 v 1.72393 q 0,0.0331 -0.0207,0.0579 -0.0165,0.0207 -0.062,0.0372 -0.0455,0.0165 -0.11989,0.0248 -0.0744,0.008 -0.19017,0.008 -0.11576,0 -0.19017,-0.008 -0.0744,-0.008 -0.11989,-0.0248 -0.0413,-0.0165 -0.062,-0.0372 -0.0165,-0.0248 -0.0165,-0.0579 v -2.76572 q 0,-0.0289 0.0124,-0.0496 0.0165,-0.0248 0.0579,-0.0413 0.0413,-0.0165 0.10335,-0.0248 0.062,-0.008 0.16123,-0.008 0.0992,0 0.16123,0.008 0.0661,0.008 0.0992,0.0248 0.0372,0.0165 0.0537,0.0413 0.0165,0.0207 0.0165,0.0496 v 0.34726 q 0.10749,-0.15709 0.20257,-0.25631 0.0992,-0.10335 0.18604,-0.16123 0.0868,-0.0579 0.17363,-0.0785 0.0868,-0.0248 0.17363,-0.0248 0.0372,0 0.0827,0.004 0.0496,0.004 0.0992,0.0165 0.0496,0.008 0.0868,0.0248 0.0372,0.0124 0.0537,0.0289 0.0165,0.0124 0.0248,0.0331 0.008,0.0165 0.0124,0.0496 0.008,0.0331 0.008,0.0992 0.004,0.0662 0.004,0.17777 z m 3.10471,2.50527 q 0,0.0372 -0.0165,0.062 -0.0124,0.0207 -0.0496,0.0372 -0.0372,0.0165 -0.10335,0.0207 -0.062,0.008 -0.1571,0.008 -0.0992,0 -0.16123,-0.008 -0.062,-0.004 -0.0992,-0.0207 -0.0372,-0.0165 -0.0579,-0.0372 -0.0165,-0.0248 -0.0165,-0.062 v -0.30592 q -0.21084,0.23151 -0.44649,0.35967 -0.23564,0.12402 -0.5209,0.12402 -0.31419,0 -0.5333,-0.11989 -0.21911,-0.12402 -0.35967,-0.33073 -0.13642,-0.21084 -0.19843,-0.48782 -0.062,-0.27699 -0.062,-0.58291 0,-0.36794 0.0785,-0.66146 0.0827,-0.29766 0.23151,-0.50436 0.15297,-0.20671 0.38034,-0.31833 0.22738,-0.11162 0.5209,-0.11162 0.23151,0 0.42168,0.0951 0.19017,0.091 0.37621,0.27698 v -1.50069 q 0,-0.0289 0.0165,-0.0537 0.0165,-0.0248 0.062,-0.0413 0.0455,-0.0165 0.11989,-0.0248 0.0744,-0.0124 0.18604,-0.0124 0.11575,0 0.19017,0.0124 0.0744,0.008 0.11575,0.0248 0.0455,0.0165 0.062,0.0413 0.0207,0.0248 0.0207,0.0537 z m -0.77307,-1.84795 q -0.1695,-0.21083 -0.32246,-0.32246 -0.15297,-0.11162 -0.32247,-0.11162 -0.14882,0 -0.26045,0.0786 -0.11162,0.0744 -0.17776,0.20258 -0.0661,0.12815 -0.0992,0.28525 -0.0331,0.15296 -0.0331,0.31833 0,0.17363 0.0289,0.339 0.0289,0.16536 0.0909,0.29352 0.0662,0.12815 0.1695,0.2067 0.10749,0.0744 0.26872,0.0744 0.0786,0 0.15296,-0.0207 0.0786,-0.0248 0.1571,-0.0744 0.0785,-0.0537 0.16123,-0.14056 0.0868,-0.0868 0.18604,-0.21084 z m 5.78879,-0.9219 q 0,0.0331 -0.008,0.0827 -0.008,0.0496 -0.0331,0.14469 l -0.74,2.50114 q -0.0124,0.0537 -0.0372,0.0868 -0.0248,0.0289 -0.0785,0.0496 -0.0496,0.0207 -0.1447,0.0248 -0.0951,0.008 -0.24804,0.008 -0.14883,0 -0.24805,-0.008 -0.0951,-0.008 -0.14883,-0.0248 -0.0537,-0.0207 -0.0785,-0.0537 -0.0248,-0.0331 -0.0372,-0.0827 l -0.46716,-1.68258 -0.004,-0.0248 -0.008,0.0248 -0.42581,1.68258 q -0.0124,0.0537 -0.0372,0.0868 -0.0207,0.0289 -0.0785,0.0496 -0.0537,0.0207 -0.15296,0.0248 -0.0951,0.008 -0.24805,0.008 -0.15296,0 -0.24804,-0.008 -0.0951,-0.008 -0.14883,-0.0248 -0.0537,-0.0207 -0.0785,-0.0537 -0.0248,-0.0331 -0.0372,-0.0827 l -0.73173,-2.50114 q -0.0289,-0.0909 -0.0372,-0.14056 -0.008,-0.0537 -0.008,-0.0868 0,-0.0331 0.0165,-0.0537 0.0207,-0.0248 0.062,-0.0372 0.0455,-0.0165 0.11989,-0.0207 0.0786,-0.008 0.19431,-0.008 0.12402,0 0.19843,0.008 0.0785,0.004 0.11989,0.0207 0.0455,0.0165 0.062,0.0455 0.0207,0.0248 0.0289,0.062 l 0.54984,2.02985 0.004,0.0372 0.008,-0.0372 0.51263,-2.02985 q 0.008,-0.0372 0.0289,-0.062 0.0207,-0.0289 0.062,-0.0455 0.0413,-0.0165 0.11163,-0.0207 0.0744,-0.008 0.19016,-0.008 0.11162,0 0.18191,0.008 0.0744,0.008 0.11575,0.0248 0.0413,0.0124 0.0579,0.0372 0.0165,0.0207 0.0289,0.0537 l 0.54983,2.04639 0.008,0.0331 0.008,-0.0372 0.52504,-2.02985 q 0.008,-0.0372 0.0248,-0.062 0.0207,-0.0289 0.062,-0.0455 0.0455,-0.0165 0.11989,-0.0207 0.0744,-0.008 0.19017,-0.008 0.11162,0 0.18603,0.008 0.0744,0.004 0.11576,0.0207 0.0413,0.0124 0.0537,0.0372 0.0165,0.0207 0.0165,0.0538 z m 2.85874,2.78226 q 0,0.0413 -0.0331,0.0661 -0.0289,0.0248 -0.0992,0.0372 -0.0661,0.0124 -0.19431,0.0124 -0.14056,0 -0.2067,-0.0124 -0.062,-0.0124 -0.0868,-0.0372 -0.0248,-0.0248 -0.0248,-0.0661 v -0.22325 q -0.17363,0.18604 -0.39274,0.28939 -0.21498,0.0992 -0.48369,0.0992 -0.21911,0 -0.40514,-0.0579 -0.18191,-0.0579 -0.31833,-0.1695 -0.13643,-0.11162 -0.21084,-0.27698 -0.0744,-0.1695 -0.0744,-0.39274 0,-0.24392 0.0951,-0.42168 0.0951,-0.17777 0.28112,-0.29353 0.19017,-0.11575 0.46715,-0.16949 0.28112,-0.0579 0.64906,-0.0579 h 0.26872 v -0.1695 q 0,-0.12816 -0.0248,-0.22738 -0.0248,-0.0992 -0.0868,-0.16123 -0.062,-0.0661 -0.16123,-0.0951 -0.0992,-0.0331 -0.24805,-0.0331 -0.19844,0 -0.3514,0.0455 -0.15296,0.0413 -0.27285,0.0951 -0.11576,0.0496 -0.1943,0.0951 -0.0786,0.0413 -0.12816,0.0413 -0.0331,0 -0.062,-0.0207 -0.0248,-0.0207 -0.0413,-0.062 -0.0165,-0.0413 -0.0289,-0.0992 -0.008,-0.0579 -0.008,-0.12816 0,-0.0992 0.0165,-0.15296 0.0165,-0.0579 0.0579,-0.0992 0.0455,-0.0455 0.15296,-0.0992 0.10749,-0.0579 0.25218,-0.10335 0.14883,-0.0455 0.31833,-0.0744 0.17363,-0.0289 0.35553,-0.0289 0.32659,0 0.55811,0.062 0.23151,0.062 0.38033,0.1943 0.14883,0.13229 0.21498,0.34313 0.0703,0.20671 0.0703,0.49196 z m -0.76895,-1.18649 h -0.29765 q -0.18604,0 -0.32246,0.0289 -0.13229,0.0289 -0.21498,0.0868 -0.0827,0.0537 -0.12402,0.13229 -0.0372,0.0785 -0.0372,0.1819 0,0.17363 0.10749,0.27285 0.11162,0.0992 0.30592,0.0992 0.16537,0 0.30179,-0.0827 0.14056,-0.0868 0.28112,-0.24805 z m 3.32073,-1.33119 q 0,0.11162 -0.008,0.1819 -0.004,0.0703 -0.0165,0.11162 -0.0124,0.0413 -0.0331,0.0579 -0.0165,0.0124 -0.0496,0.0124 -0.0248,0 -0.0579,-0.008 -0.0289,-0.0124 -0.0703,-0.0248 -0.0372,-0.0124 -0.0827,-0.0207 -0.0455,-0.0124 -0.10336,-0.0124 -0.062,0 -0.12815,0.0248 -0.0661,0.0248 -0.13643,0.0827 -0.0703,0.0537 -0.14469,0.14883 -0.0744,0.0909 -0.16123,0.22737 v 1.72393 q 0,0.0331 -0.0207,0.0579 -0.0165,0.0207 -0.062,0.0372 -0.0455,0.0165 -0.11989,0.0248 -0.0744,0.008 -0.19017,0.008 -0.11575,0 -0.19017,-0.008 -0.0744,-0.008 -0.11989,-0.0248 -0.0413,-0.0165 -0.062,-0.0372 -0.0165,-0.0248 -0.0165,-0.0579 v -2.76572 q 0,-0.0289 0.0124,-0.0496 0.0165,-0.0248 0.0579,-0.0413 0.0413,-0.0165 0.10336,-0.0248 0.062,-0.008 0.16123,-0.008 0.0992,0 0.16123,0.008 0.0661,0.008 0.0992,0.0248 0.0372,0.0165 0.0537,0.0413 0.0165,0.0207 0.0165,0.0496 v 0.34726 q 0.10749,-0.15709 0.20258,-0.25631 0.0992,-0.10335 0.18603,-0.16123 0.0868,-0.0579 0.17363,-0.0785 0.0868,-0.0248 0.17364,-0.0248 0.0372,0 0.0827,0.004 0.0496,0.004 0.0992,0.0165 0.0496,0.008 0.0868,0.0248 0.0372,0.0124 0.0537,0.0289 0.0165,0.0124 0.0248,0.0331 0.008,0.0165 0.0124,0.0496 0.008,0.0331 0.008,0.0992 0.004,0.0662 0.004,0.17777 z m 3.03858,1.0418 q 0,0.14469 -0.0661,0.21497 -0.062,0.0662 -0.17363,0.0662 h -1.68259 q 0,0.17777 0.0413,0.32246 0.0413,0.14056 0.13229,0.24391 0.091,0.0992 0.23565,0.15297 0.14469,0.0537 0.34727,0.0537 0.20257,0 0.35553,-0.0289 0.1571,-0.0331 0.26872,-0.0662 0.11575,-0.0372 0.19017,-0.0661 0.0744,-0.0289 0.11989,-0.0289 0.0289,0 0.0455,0.0124 0.0207,0.008 0.0331,0.0372 0.0124,0.0289 0.0165,0.0785 0.004,0.0496 0.004,0.12815 0,0.0703 -0.004,0.11989 0,0.0455 -0.008,0.0786 -0.004,0.0331 -0.0165,0.0579 -0.0124,0.0248 -0.0331,0.0455 -0.0207,0.0207 -0.11162,0.0579 -0.091,0.0372 -0.23151,0.0744 -0.13643,0.0372 -0.31833,0.062 -0.17777,0.0248 -0.38447,0.0248 -0.36794,0 -0.64493,-0.0909 -0.27698,-0.0951 -0.46302,-0.28112 -0.18603,-0.19016 -0.27698,-0.47955 -0.0909,-0.28939 -0.0909,-0.678 0,-0.36793 0.0951,-0.66146 0.0951,-0.29765 0.27699,-0.50436 0.18603,-0.2067 0.44648,-0.31419 0.26045,-0.10749 0.59118,-0.10749 0.34727,0 0.59118,0.10336 0.24804,0.0992 0.40514,0.28112 0.16123,0.1819 0.23565,0.42994 0.0744,0.24805 0.0744,0.53744 z m -0.75655,-0.22324 q 0.008,-0.3266 -0.13229,-0.51263 -0.14056,-0.19017 -0.43822,-0.19017 -0.14882,0 -0.26044,0.0579 -0.10749,0.0537 -0.1819,0.14882 -0.0703,0.0951 -0.11163,0.22325 -0.0372,0.12815 -0.0413,0.27285 z"
       fill-rule="nonzero"
       id="path201"
       style="stroke-width:0.264583" />
    <path
       fill="#3d85c6"
       d="M 30.157487,75.530698 H 104.82415 V 92.830691 H 30.157487 Z"
       fill-rule="evenodd"
       id="path203"
       style="stroke-width:0.264583" />
    <path
       fill="#000000"
       d="m 48.032577,84.385583 q 0,0.500226 -0.12403,0.897101 -0.12402,0.392742 -0.37207,0.665594 -0.24391,0.272852 -0.60358,0.417544 -0.35966,0.144696 -0.83509,0.144696 -0.46715,0 -0.81855,-0.119891 -0.34727,-0.124023 -0.58291,-0.376203 -0.23151,-0.252182 -0.34727,-0.636654 -0.11575,-0.388607 -0.11575,-0.917773 0,-0.487826 0.12402,-0.876432 0.12402,-0.388607 0.36794,-0.661459 0.24804,-0.272851 0.60771,-0.417547 0.35967,-0.148828 0.83923,-0.148828 0.45475,0 0.80201,0.124024 0.3514,0.11989 0.58291,0.37207 0.23565,0.248047 0.35554,0.632521 0.11989,0.380338 0.11989,0.901237 z m -0.85576,0.04547 q 0,-0.318326 -0.0496,-0.574641 -0.0496,-0.26045 -0.1695,-0.442352 -0.11989,-0.186033 -0.31833,-0.285252 -0.19844,-0.103354 -0.49609,-0.103354 -0.30179,0 -0.50436,0.115755 -0.19844,0.111622 -0.32247,0.301792 -0.12402,0.186033 -0.17776,0.442349 -0.0496,0.252182 -0.0496,0.533302 0,0.326593 0.0496,0.591177 0.0496,0.26045 0.16536,0.446484 0.11989,0.186037 0.31833,0.285255 0.19844,0.09508 0.50023,0.09508 0.30179,0 0.50023,-0.11162 0.20257,-0.111623 0.32659,-0.301792 0.12402,-0.194302 0.17363,-0.446484 0.0538,-0.256315 0.0538,-0.545703 z m 4.27777,0.479557 q 0,0.367937 -0.0785,0.665594 -0.0786,0.297656 -0.23151,0.504362 -0.15296,0.206705 -0.38034,0.318325 -0.22324,0.111623 -0.51676,0.111623 -0.11989,0 -0.22324,-0.02479 -0.0992,-0.02066 -0.19431,-0.06615 -0.0909,-0.04961 -0.18603,-0.11989 -0.091,-0.07441 -0.19017,-0.169498 v 1.302245 q 0,0.03307 -0.0207,0.05788 -0.0165,0.02479 -0.062,0.04134 -0.0455,0.01654 -0.11989,0.02479 -0.0744,0.0083 -0.19017,0.0083 -0.11575,0 -0.19017,-0.0083 -0.0744,-0.0083 -0.11989,-0.02479 -0.0413,-0.01654 -0.062,-0.04134 -0.0165,-0.02479 -0.0165,-0.05788 v -3.865409 q 0,-0.02894 0.0124,-0.04961 0.0165,-0.02479 0.0537,-0.04134 0.0413,-0.01654 0.10335,-0.02479 0.0661,-0.0083 0.16123,-0.0083 0.0909,0 0.15296,0.0083 0.0661,0.0083 0.10336,0.02479 0.0413,0.01654 0.0537,0.04134 0.0165,0.02066 0.0165,0.04961 v 0.326594 q 0.12402,-0.124024 0.23978,-0.219107 0.11575,-0.09509 0.23564,-0.157096 0.11989,-0.06201 0.24805,-0.09095 0.13229,-0.03307 0.27698,-0.03307 0.30179,0 0.51677,0.119888 0.21497,0.115755 0.34726,0.326597 0.13643,0.206705 0.19844,0.48369 0.062,0.272851 0.062,0.587044 z m -0.81029,0.05788 q 0,-0.177766 -0.0289,-0.338998 -0.0248,-0.165364 -0.0909,-0.289388 -0.062,-0.128156 -0.16536,-0.20257 -0.10335,-0.07855 -0.26045,-0.07855 -0.0744,0 -0.15296,0.02479 -0.0744,0.02066 -0.15296,0.07441 -0.0786,0.05374 -0.16537,0.136427 -0.0827,0.08268 -0.17363,0.206706 v 0.913646 q 0.16123,0.206705 0.31006,0.322461 0.14883,0.111622 0.31005,0.111622 0.15297,0 0.26045,-0.07855 0.10749,-0.07855 0.17364,-0.202571 0.0703,-0.128159 0.10335,-0.285255 0.0331,-0.157096 0.0331,-0.314193 z m 3.99046,-0.09922 q 0,0.144695 -0.0661,0.214974 -0.062,0.06615 -0.17363,0.06615 h -1.68259 q 0,0.177768 0.0413,0.322461 0.0413,0.140559 0.13229,0.243914 0.091,0.09922 0.23565,0.152961 0.14469,0.05374 0.34727,0.05374 0.20257,0 0.35553,-0.02894 0.1571,-0.03307 0.26872,-0.06615 0.11575,-0.03721 0.19017,-0.06614 0.0744,-0.02894 0.11989,-0.02894 0.0289,0 0.0455,0.01241 0.0207,0.0083 0.0331,0.03721 0.0124,0.02894 0.0165,0.07855 0.004,0.04961 0.004,0.128159 0,0.07028 -0.004,0.119888 0,0.04548 -0.008,0.07855 -0.004,0.03307 -0.0165,0.05788 -0.0124,0.02479 -0.0331,0.04547 -0.0207,0.02066 -0.11161,0.05788 -0.091,0.03721 -0.23152,0.07441 -0.13642,0.03721 -0.31832,0.06201 -0.17777,0.02479 -0.38447,0.02479 -0.36794,0 -0.64493,-0.09095 -0.27698,-0.09509 -0.46302,-0.28112 -0.18603,-0.190169 -0.27698,-0.479557 -0.0909,-0.289388 -0.0909,-0.677995 0,-0.367938 0.0951,-0.661458 0.0951,-0.297657 0.27699,-0.504362 0.18603,-0.206706 0.44648,-0.314193 0.26045,-0.107487 0.59118,-0.107487 0.34727,0 0.59118,0.103351 0.24804,0.09922 0.40514,0.28112 0.16123,0.181901 0.23565,0.429948 0.0744,0.248047 0.0744,0.537435 z m -0.75655,-0.223242 q 0.008,-0.326594 -0.13229,-0.512631 -0.14056,-0.190169 -0.43822,-0.190169 -0.14882,0 -0.26044,0.05788 -0.10749,0.05374 -0.1819,0.148828 -0.0703,0.09509 -0.11163,0.223242 -0.0372,0.128159 -0.0413,0.272852 z m 3.1719,-0.818555 q 0,0.111622 -0.008,0.181901 -0.004,0.07028 -0.0165,0.111622 -0.0124,0.04134 -0.0331,0.05788 -0.0165,0.01241 -0.0496,0.01241 -0.0248,0 -0.0579,-0.0083 -0.0289,-0.01241 -0.0703,-0.02479 -0.0372,-0.01241 -0.0827,-0.02066 -0.0455,-0.01241 -0.10336,-0.01241 -0.062,0 -0.12815,0.02479 -0.0661,0.02479 -0.13643,0.08268 -0.0703,0.05374 -0.14469,0.148828 -0.0744,0.09095 -0.16123,0.227378 v 1.723925 q 0,0.03307 -0.0207,0.05788 -0.0165,0.02066 -0.062,0.03721 -0.0455,0.01654 -0.11989,0.02479 -0.0744,0.0083 -0.19017,0.0083 -0.11575,0 -0.19017,-0.0083 -0.0744,-0.0083 -0.11989,-0.02479 -0.0413,-0.01654 -0.062,-0.03721 -0.0165,-0.02479 -0.0165,-0.05788 v -2.765743 q 0,-0.02894 0.0124,-0.04961 0.0165,-0.02479 0.0579,-0.04134 0.0413,-0.01654 0.10336,-0.02479 0.062,-0.0083 0.16123,-0.0083 0.0992,0 0.16123,0.0083 0.0661,0.0083 0.0992,0.02479 0.0372,0.01654 0.0537,0.04134 0.0165,0.02066 0.0165,0.04961 v 0.347266 q 0.10749,-0.157097 0.20258,-0.256315 0.0992,-0.103355 0.18603,-0.161232 0.0868,-0.05788 0.17363,-0.07855 0.0868,-0.02479 0.17364,-0.02479 0.0372,0 0.0827,0.0041 0.0496,0.0041 0.0992,0.01654 0.0496,0.0083 0.0868,0.02479 0.0372,0.01241 0.0537,0.02894 0.0165,0.01241 0.0248,0.03307 0.008,0.01654 0.0124,0.04961 0.008,0.03307 0.008,0.09922 0.004,0.06615 0.004,0.177766 z m 2.84014,2.517677 q 0,0.04134 -0.0331,0.06615 -0.0289,0.02479 -0.0992,0.03721 -0.0661,0.01241 -0.19431,0.01241 -0.14056,0 -0.2067,-0.01241 -0.062,-0.01241 -0.0868,-0.03721 -0.0248,-0.02479 -0.0248,-0.06615 v -0.223242 q -0.17363,0.186034 -0.39274,0.289388 -0.21498,0.09922 -0.48369,0.09922 -0.21911,0 -0.40514,-0.05788 -0.18191,-0.05788 -0.31833,-0.1695 -0.13643,-0.11162 -0.21084,-0.276984 -0.0744,-0.1695 -0.0744,-0.392743 0,-0.243911 0.0951,-0.421679 0.0951,-0.177766 0.28112,-0.293521 0.19017,-0.115755 0.46715,-0.1695 0.28112,-0.05788 0.64906,-0.05788 h 0.26872 v -0.169497 q 0,-0.128159 -0.0248,-0.227378 -0.0248,-0.09922 -0.0868,-0.161229 -0.062,-0.06615 -0.16123,-0.09509 -0.0992,-0.03307 -0.24805,-0.03307 -0.19844,0 -0.3514,0.04548 -0.15296,0.04134 -0.27285,0.09508 -0.11576,0.04961 -0.1943,0.09509 -0.0786,0.04134 -0.12816,0.04134 -0.0331,0 -0.062,-0.02066 -0.0248,-0.02066 -0.0413,-0.06201 -0.0165,-0.04134 -0.0289,-0.09922 -0.008,-0.05788 -0.008,-0.128159 0,-0.09922 0.0165,-0.152961 0.0165,-0.05788 0.0579,-0.09922 0.0455,-0.04548 0.15296,-0.09922 0.10749,-0.05788 0.25218,-0.103354 0.14883,-0.04547 0.31833,-0.07441 0.17363,-0.02894 0.35553,-0.02894 0.32659,0 0.55811,0.06201 0.23151,0.06201 0.38033,0.194304 0.14883,0.132292 0.21498,0.34313 0.0703,0.206706 0.0703,0.491961 z m -0.76895,-1.186492 h -0.29765 q -0.18604,0 -0.32246,0.02894 -0.13229,0.02894 -0.21498,0.08682 -0.0827,0.05374 -0.12402,0.132292 -0.0372,0.07855 -0.0372,0.181901 0,0.173633 0.10749,0.272851 0.11162,0.09922 0.30592,0.09922 0.16537,0 0.30179,-0.08268 0.14056,-0.08682 0.28112,-0.248047 z m 3.1843,0.901237 q 0,0.136427 -0.0207,0.210841 -0.0165,0.07441 -0.0455,0.103351 -0.0248,0.02894 -0.0785,0.05375 -0.0538,0.02066 -0.12816,0.03721 -0.0744,0.02066 -0.16123,0.02894 -0.0827,0.0083 -0.1695,0.0083 -0.23151,0 -0.40514,-0.06201 -0.1695,-0.05788 -0.28112,-0.177766 -0.11162,-0.124023 -0.16537,-0.310059 -0.0496,-0.186034 -0.0496,-0.438217 v -1.418 h -0.33073 q -0.062,0 -0.0951,-0.07028 -0.0289,-0.07441 -0.0289,-0.248047 0,-0.08681 0.008,-0.148828 0.008,-0.06201 0.0248,-0.09922 0.0165,-0.03721 0.0372,-0.04961 0.0248,-0.01654 0.0538,-0.01654 h 0.33073 v -0.615982 q 0,-0.03307 0.0165,-0.05788 0.0165,-0.02479 0.062,-0.04134 0.0455,-0.01654 0.11989,-0.02479 0.0786,-0.0083 0.19017,-0.0083 0.11162,0 0.18604,0.0083 0.0785,0.0083 0.11989,0.02479 0.0455,0.01654 0.062,0.04134 0.0207,0.02479 0.0207,0.05788 v 0.615982 h 0.60358 q 0.0289,0 0.0496,0.01654 0.0248,0.01241 0.0413,0.04961 0.0165,0.03721 0.0248,0.09922 0.008,0.06201 0.008,0.148828 0,0.173633 -0.0331,0.248047 -0.0289,0.07028 -0.0909,0.07028 h -0.60358 v 1.298112 q 0,0.227375 0.0703,0.343131 0.0744,0.111622 0.25631,0.111622 0.062,0 0.11162,-0.01241 0.0496,-0.01241 0.0868,-0.02479 0.0413,-0.01241 0.0661,-0.02479 0.0248,-0.01241 0.0496,-0.01241 0.0165,0 0.0331,0.01241 0.0165,0.01241 0.0248,0.04548 0.0124,0.02894 0.0207,0.08682 0.008,0.05374 0.008,0.14056 z m 1.34566,0.272851 q 0,0.03307 -0.0207,0.05788 -0.0165,0.02066 -0.062,0.03721 -0.0455,0.01654 -0.11989,0.02479 -0.0744,0.0083 -0.19017,0.0083 -0.11575,0 -0.19016,-0.0083 -0.0744,-0.0083 -0.1199,-0.02479 -0.0413,-0.01654 -0.062,-0.03721 -0.0165,-0.02479 -0.0165,-0.05788 v -2.757453 q 0,-0.03307 0.0165,-0.05374 0.0207,-0.02479 0.062,-0.04134 0.0455,-0.01654 0.1199,-0.02479 0.0744,-0.01241 0.19016,-0.01241 0.11576,0 0.19017,0.01241 0.0744,0.0083 0.11989,0.02479 0.0455,0.01654 0.062,0.04134 0.0207,0.02066 0.0207,0.05374 z m 0.0579,-3.700031 q 0,0.235643 -0.0992,0.326594 -0.0951,0.08682 -0.35554,0.08682 -0.26044,0 -0.35553,-0.08682 -0.0909,-0.08681 -0.0909,-0.310057 0,-0.235646 0.0951,-0.326597 0.0951,-0.09508 0.35966,-0.09508 0.26045,0 0.3514,0.09095 0.0951,0.08682 0.0951,0.314193 z m 3.36206,3.700031 q 0,0.03307 -0.0207,0.05788 -0.0165,0.02066 -0.062,0.03721 -0.0413,0.01654 -0.11989,0.02479 -0.0744,0.0083 -0.18604,0.0083 -0.11575,0 -0.1943,-0.0083 -0.0744,-0.0083 -0.11989,-0.02479 -0.0413,-0.01654 -0.062,-0.03721 -0.0165,-0.02479 -0.0165,-0.05788 v -1.575093 q 0,-0.202573 -0.0289,-0.318328 -0.0289,-0.115755 -0.0868,-0.194302 -0.0538,-0.08268 -0.1447,-0.128159 -0.0868,-0.04547 -0.20257,-0.04547 -0.14883,0 -0.30179,0.107487 -0.15296,0.107487 -0.31419,0.318325 v 1.835547 q 0,0.03307 -0.0207,0.05788 -0.0165,0.02066 -0.062,0.03721 -0.0455,0.01654 -0.11989,0.02479 -0.0744,0.0083 -0.19017,0.0083 -0.11575,0 -0.19017,-0.0083 -0.0744,-0.0083 -0.11989,-0.02479 -0.0413,-0.01654 -0.062,-0.03721 -0.0165,-0.02479 -0.0165,-0.05788 v -2.765721 q 0,-0.02894 0.0124,-0.04961 0.0165,-0.02479 0.0579,-0.04134 0.0414,-0.01654 0.10336,-0.02479 0.062,-0.0083 0.16123,-0.0083 0.0992,0 0.16123,0.0083 0.0661,0.0083 0.0992,0.02479 0.0372,0.01654 0.0537,0.04134 0.0165,0.02066 0.0165,0.04961 v 0.322461 q 0.22737,-0.248047 0.46302,-0.37207 0.23978,-0.124024 0.49609,-0.124024 0.28526,0 0.47543,0.09508 0.1943,0.09095 0.31419,0.252182 0.11989,0.157096 0.17363,0.37207 0.0537,0.210839 0.0537,0.51263 z m 3.25872,-2.571419 q 0,0.148828 -0.0372,0.21911 -0.0331,0.07028 -0.0827,0.07028 h -0.32659 q 0.0703,0.07441 0.0992,0.1695 0.0289,0.09508 0.0289,0.198438 0,0.239778 -0.0827,0.429948 -0.0786,0.186033 -0.23151,0.314192 -0.14883,0.128156 -0.35967,0.198438 -0.21084,0.06615 -0.47128,0.06615 -0.13643,0 -0.25632,-0.03307 -0.11989,-0.03307 -0.18604,-0.07855 -0.0372,0.04134 -0.0661,0.09922 -0.0289,0.05375 -0.0289,0.124023 0,0.08682 0.0786,0.144696 0.0785,0.05788 0.22324,0.06615 l 0.66973,0.02479 q 0.23564,0.0083 0.42168,0.06615 0.18603,0.05788 0.31006,0.161229 0.12402,0.103354 0.19016,0.248047 0.0703,0.144695 0.0703,0.334864 0,0.202571 -0.0909,0.384472 -0.0909,0.181901 -0.27285,0.314192 -0.17776,0.132292 -0.45062,0.210842 -0.26871,0.07855 -0.63252,0.07855 -0.3514,0 -0.60358,-0.05788 -0.24804,-0.05374 -0.40927,-0.152961 -0.1571,-0.09922 -0.23151,-0.239779 -0.0744,-0.136427 -0.0744,-0.301791 0,-0.09922 0.0248,-0.194302 0.0289,-0.09095 0.0786,-0.177769 0.0537,-0.08682 0.12816,-0.161229 0.0744,-0.07855 0.1695,-0.152963 -0.1323,-0.07028 -0.20671,-0.19017 -0.0703,-0.124023 -0.0703,-0.268716 0,-0.186036 0.0827,-0.334864 0.0827,-0.148828 0.21498,-0.272852 -0.10749,-0.107487 -0.17363,-0.256315 -0.062,-0.152961 -0.062,-0.380339 0,-0.243911 0.0827,-0.43408 0.0868,-0.19017 0.23565,-0.322461 0.15296,-0.132292 0.3638,-0.198438 0.21084,-0.07028 0.46716,-0.07028 0.12816,0 0.24804,0.01654 0.11989,0.01241 0.22325,0.04134 h 0.87643 q 0.0537,0 0.0868,0.07028 0.0331,0.06615 0.0331,0.227375 z m -1.00459,0.65319 q 0,-0.223242 -0.12402,-0.347265 -0.12403,-0.124024 -0.34727,-0.124024 -0.11575,0 -0.20257,0.04134 -0.0868,0.03721 -0.14469,0.103354 -0.0579,0.06615 -0.0868,0.157097 -0.0248,0.08682 -0.0248,0.181901 0,0.210838 0.12402,0.334862 0.12403,0.11989 0.34313,0.11989 0.11576,0 0.20258,-0.03721 0.0868,-0.03721 0.14469,-0.09922 0.0579,-0.06614 0.0868,-0.148828 0.0289,-0.08681 0.0289,-0.181901 z m 0.18604,2.207617 q 0,-0.136424 -0.11163,-0.210838 -0.11162,-0.07855 -0.31005,-0.08268 l -0.55397,-0.01654 q -0.0785,0.05788 -0.12816,0.115755 -0.0496,0.05374 -0.0786,0.103352 -0.0289,0.04961 -0.0372,0.09509 -0.008,0.04547 -0.008,0.09508 0,0.157096 0.15296,0.235646 0.1571,0.08268 0.44235,0.08268 0.17777,0 0.29766,-0.03721 0.12402,-0.03307 0.19843,-0.09508 0.0744,-0.05788 0.10336,-0.132292 0.0331,-0.07028 0.0331,-0.152964 z m 5.19451,-1.384927 q 0,0.314193 -0.11989,0.553972 -0.11575,0.239778 -0.31833,0.401007 -0.19843,0.157097 -0.47128,0.239779 -0.26872,0.07855 -0.57464,0.07855 -0.20671,0 -0.38861,-0.03307 -0.17777,-0.03307 -0.31419,-0.08268 -0.13643,-0.04961 -0.22738,-0.09922 -0.0909,-0.05374 -0.13229,-0.09509 -0.0372,-0.04134 -0.0579,-0.115756 -0.0165,-0.07441 -0.0165,-0.219106 0,-0.09509 0.004,-0.161232 0.008,-0.06615 0.0207,-0.103352 0.0165,-0.04134 0.0372,-0.05788 0.0248,-0.01654 0.0579,-0.01654 0.0413,0 0.11989,0.04961 0.0827,0.04961 0.2067,0.111619 0.12403,0.06201 0.29353,0.115756 0.17363,0.04961 0.401,0.04961 0.14883,0 0.26459,-0.03307 0.11989,-0.03721 0.19844,-0.103351 0.0827,-0.06615 0.12402,-0.161232 0.0455,-0.09508 0.0455,-0.214974 0,-0.136425 -0.0744,-0.231511 -0.0744,-0.09922 -0.1943,-0.173632 -0.11576,-0.07855 -0.26872,-0.144693 -0.15296,-0.06615 -0.31419,-0.14056 -0.16123,-0.07441 -0.31419,-0.1695 -0.14883,-0.09508 -0.26872,-0.223242 -0.11989,-0.132292 -0.19431,-0.310057 -0.0744,-0.181901 -0.0744,-0.434084 0,-0.289388 0.10749,-0.508495 0.10748,-0.219109 0.28525,-0.359669 0.1819,-0.144692 0.42995,-0.214974 0.24804,-0.07441 0.5209,-0.07441 0.14469,0 0.28525,0.02479 0.14469,0.02066 0.26872,0.05788 0.12402,0.03721 0.21911,0.08268 0.0951,0.04548 0.12402,0.07855 0.0331,0.02894 0.0455,0.05374 0.0124,0.02066 0.0165,0.05788 0.008,0.03307 0.0124,0.08682 0.004,0.05374 0.004,0.136424 0,0.08682 -0.004,0.148828 -0.004,0.06201 -0.0165,0.103354 -0.0124,0.04134 -0.0331,0.06201 -0.0165,0.01654 -0.0537,0.01654 -0.0331,0 -0.10749,-0.04134 -0.0744,-0.04547 -0.1819,-0.09508 -0.10749,-0.05375 -0.25218,-0.09509 -0.14056,-0.04134 -0.31419,-0.04134 -0.1323,0 -0.23152,0.03307 -0.0992,0.03307 -0.16536,0.09095 -0.0661,0.05374 -0.0992,0.136427 -0.0331,0.07855 -0.0331,0.169497 0,0.132292 0.0703,0.231511 0.0744,0.09922 0.19843,0.173633 0.12403,0.07441 0.27699,0.144695 0.1571,0.06615 0.31833,0.14056 0.16123,0.07441 0.31419,0.169497 0.1571,0.09095 0.27699,0.223242 0.11989,0.132292 0.1943,0.31006 0.0744,0.177766 0.0744,0.42168 z m 2.17868,1.203026 -0.33486,0.979787 q -0.0248,0.07855 -0.14883,0.11162 -0.12403,0.03307 -0.3638,0.03307 -0.12403,0 -0.19844,-0.01241 -0.0744,-0.0083 -0.11162,-0.03307 -0.0372,-0.02479 -0.0413,-0.06201 -0.004,-0.03721 0.0207,-0.09095 l 0.36794,-0.926042 q -0.0413,-0.02066 -0.0744,-0.05788 -0.0331,-0.03721 -0.0455,-0.08268 l -0.95498,-2.542479 q -0.0372,-0.107487 -0.0372,-0.165364 0,-0.05788 0.0372,-0.09095 0.0372,-0.03307 0.12402,-0.04548 0.0868,-0.01241 0.23565,-0.01241 0.13229,0 0.2067,0.0083 0.0785,0.0041 0.11989,0.02479 0.0455,0.01654 0.0661,0.05374 0.0248,0.03721 0.0455,0.111623 l 0.65319,1.847948 h 0.008 l 0.59531,-1.885157 q 0.0165,-0.08268 0.0455,-0.107487 0.0331,-0.02894 0.0992,-0.04134 0.0703,-0.01241 0.23978,-0.01241 0.1323,0 0.21911,0.01241 0.0909,0.01241 0.13229,0.04961 0.0413,0.03307 0.0413,0.09095 0,0.05788 -0.0248,0.132292 z m 3.35483,-0.888833 q 0,0.235643 -0.091,0.417544 -0.0868,0.177769 -0.24804,0.301792 -0.16123,0.119888 -0.38448,0.177766 -0.21911,0.06201 -0.47542,0.06201 -0.15296,0 -0.29766,-0.02479 -0.14056,-0.02066 -0.25218,-0.05374 -0.11162,-0.03721 -0.18603,-0.07441 -0.0744,-0.03721 -0.10749,-0.07028 -0.0331,-0.03307 -0.0537,-0.103355 -0.0165,-0.07028 -0.0165,-0.206705 0,-0.09095 0.004,-0.144693 0.008,-0.05374 0.0207,-0.08682 0.0124,-0.03307 0.0289,-0.04134 0.0207,-0.01241 0.0496,-0.01241 0.0331,0 0.0992,0.04134 0.0661,0.03721 0.16536,0.08268 0.0992,0.04547 0.23151,0.08681 0.1323,0.04134 0.29766,0.04134 0.10749,0 0.19017,-0.02066 0.0827,-0.02479 0.14056,-0.06201 0.062,-0.04134 0.0909,-0.103352 0.0331,-0.06201 0.0331,-0.144695 0,-0.09095 -0.0579,-0.157096 -0.0579,-0.06615 -0.15296,-0.115756 -0.0951,-0.04961 -0.21497,-0.09095 -0.11576,-0.04547 -0.24391,-0.09922 -0.12403,-0.05374 -0.24392,-0.119888 -0.11989,-0.07028 -0.21497,-0.1695 -0.0951,-0.09922 -0.15296,-0.235643 -0.0538,-0.14056 -0.0538,-0.338997 0,-0.198438 0.0744,-0.363803 0.0786,-0.165364 0.22324,-0.281119 0.14883,-0.119891 0.35553,-0.181901 0.21084,-0.06615 0.47129,-0.06615 0.12816,0 0.25218,0.02066 0.12403,0.01654 0.22325,0.04548 0.0992,0.02479 0.16536,0.05788 0.0703,0.03307 0.0992,0.05788 0.0289,0.02066 0.0413,0.04547 0.0124,0.02066 0.0165,0.05374 0.008,0.03307 0.0124,0.08268 0.004,0.04547 0.004,0.119888 0,0.08268 -0.004,0.136427 -0.004,0.04961 -0.0165,0.08268 -0.008,0.02894 -0.0289,0.04134 -0.0165,0.01241 -0.0413,0.01241 -0.0289,0 -0.0909,-0.03307 -0.0579,-0.03307 -0.1447,-0.07028 -0.0868,-0.03721 -0.2067,-0.07028 -0.11576,-0.03307 -0.26458,-0.03307 -0.10336,0 -0.18191,0.02479 -0.0785,0.02066 -0.12815,0.06201 -0.0496,0.03721 -0.0744,0.09095 -0.0248,0.05374 -0.0248,0.115756 0,0.09922 0.0579,0.165364 0.062,0.06201 0.15709,0.11162 0.0951,0.04961 0.21911,0.09509 0.12403,0.04134 0.24805,0.09508 0.12402,0.04961 0.24805,0.119891 0.12402,0.06615 0.2191,0.165364 0.0951,0.09922 0.15297,0.239779 0.062,0.136425 0.062,0.322461 z m 2.22312,0.508495 q 0,0.136427 -0.0207,0.210841 -0.0165,0.07441 -0.0455,0.103351 -0.0248,0.02894 -0.0785,0.05375 -0.0538,0.02066 -0.12816,0.03721 -0.0744,0.02066 -0.16123,0.02894 -0.0827,0.0083 -0.1695,0.0083 -0.23151,0 -0.40514,-0.06201 -0.1695,-0.05788 -0.28112,-0.177766 -0.11162,-0.124023 -0.16537,-0.310059 -0.0496,-0.186034 -0.0496,-0.438217 v -1.418 h -0.33072 q -0.062,0 -0.0951,-0.07028 -0.0289,-0.07441 -0.0289,-0.248047 0,-0.08681 0.008,-0.148828 0.008,-0.06201 0.0248,-0.09922 0.0165,-0.03721 0.0372,-0.04961 0.0248,-0.01654 0.0537,-0.01654 h 0.33073 v -0.615982 q 0,-0.03307 0.0165,-0.05788 0.0165,-0.02479 0.062,-0.04134 0.0455,-0.01654 0.11989,-0.02479 0.0785,-0.0083 0.19017,-0.0083 0.11161,0 0.18603,0.0083 0.0786,0.0083 0.11989,0.02479 0.0455,0.01654 0.062,0.04134 0.0207,0.02479 0.0207,0.05788 v 0.615982 h 0.60358 q 0.0289,0 0.0496,0.01654 0.0248,0.01241 0.0413,0.04961 0.0165,0.03721 0.0248,0.09922 0.008,0.06201 0.008,0.148828 0,0.173633 -0.0331,0.248047 -0.0289,0.07028 -0.0909,0.07028 h -0.60358 v 1.298112 q 0,0.227375 0.0703,0.343131 0.0744,0.111622 0.25631,0.111622 0.062,0 0.11162,-0.01241 0.0496,-0.01241 0.0868,-0.02479 0.0413,-0.01241 0.0661,-0.02479 0.0248,-0.01241 0.0496,-0.01241 0.0165,0 0.0331,0.01241 0.0165,0.01241 0.0248,0.04548 0.0124,0.02894 0.0207,0.08682 0.008,0.05374 0.008,0.14056 z m 3.1192,-1.190625 q 0,0.144695 -0.0662,0.214974 -0.062,0.06615 -0.17363,0.06615 h -1.68259 q 0,0.177768 0.0413,0.322461 0.0413,0.140559 0.13229,0.243914 0.091,0.09922 0.23565,0.152961 0.1447,0.05374 0.34727,0.05374 0.20257,0 0.35553,-0.02894 0.1571,-0.03307 0.26872,-0.06615 0.11575,-0.03721 0.19017,-0.06614 0.0744,-0.02894 0.11989,-0.02894 0.0289,0 0.0455,0.01241 0.0207,0.0083 0.0331,0.03721 0.0124,0.02894 0.0165,0.07855 0.004,0.04961 0.004,0.128159 0,0.07028 -0.004,0.119888 0,0.04548 -0.008,0.07855 -0.004,0.03307 -0.0165,0.05788 -0.0124,0.02479 -0.0331,0.04547 -0.0207,0.02066 -0.11163,0.05788 -0.0909,0.03721 -0.23151,0.07441 -0.13642,0.03721 -0.31832,0.06201 -0.17777,0.02479 -0.38448,0.02479 -0.36793,0 -0.64492,-0.09095 -0.27699,-0.09509 -0.46302,-0.28112 -0.18604,-0.190169 -0.27699,-0.479557 -0.091,-0.289388 -0.091,-0.677995 0,-0.367938 0.0951,-0.661458 0.0951,-0.297657 0.27698,-0.504362 0.18604,-0.206706 0.44649,-0.314193 0.26045,-0.107487 0.59118,-0.107487 0.34726,0 0.59118,0.103351 0.24805,0.09922 0.40514,0.28112 0.16123,0.181901 0.23565,0.429948 0.0744,0.248047 0.0744,0.537435 z m -0.75655,-0.223242 q 0.008,-0.326594 -0.13229,-0.512631 -0.14056,-0.190169 -0.43821,-0.190169 -0.14883,0 -0.26045,0.05788 -0.10749,0.05374 -0.18191,0.148828 -0.0703,0.09509 -0.11162,0.223242 -0.0372,0.128159 -0.0413,0.272852 z m 5.79707,1.686718 q 0,0.03307 -0.0207,0.05788 -0.0165,0.02066 -0.062,0.03721 -0.0413,0.01654 -0.11575,0.02479 -0.0744,0.0083 -0.19017,0.0083 -0.11576,0 -0.19017,-0.0083 -0.0744,-0.0083 -0.11989,-0.02479 -0.0455,-0.01654 -0.062,-0.03721 -0.0165,-0.02479 -0.0165,-0.05788 v -1.637109 q 0,-0.14056 -0.0289,-0.256315 -0.0248,-0.115755 -0.0785,-0.194302 -0.0537,-0.08268 -0.13642,-0.128159 -0.0827,-0.04547 -0.19844,-0.04547 -0.14056,0 -0.28525,0.107487 -0.14056,0.107487 -0.30593,0.318325 v 1.835547 q 0,0.03307 -0.0207,0.05788 -0.0165,0.02066 -0.062,0.03721 -0.0455,0.01654 -0.11989,0.02479 -0.0744,0.0083 -0.18604,0.0083 -0.11575,0 -0.19016,-0.0083 -0.0744,-0.0083 -0.1199,-0.02479 -0.0413,-0.01654 -0.062,-0.03721 -0.0165,-0.02479 -0.0165,-0.05788 v -1.637109 q 0,-0.14056 -0.0289,-0.256315 -0.0248,-0.115755 -0.0786,-0.194302 -0.0537,-0.08268 -0.13643,-0.128159 -0.0827,-0.04547 -0.1943,-0.04547 -0.14469,0 -0.28939,0.107487 -0.14056,0.107487 -0.30179,0.318325 v 1.835547 q 0,0.03307 -0.0207,0.05788 -0.0165,0.02066 -0.062,0.03721 -0.0455,0.01654 -0.11988,0.02479 -0.0744,0.0083 -0.19017,0.0083 -0.11576,0 -0.19017,-0.0083 -0.0744,-0.0083 -0.11989,-0.02479 -0.0413,-0.01654 -0.062,-0.03721 -0.0165,-0.02479 -0.0165,-0.05788 v -2.765721 q 0,-0.02894 0.0124,-0.04961 0.0165,-0.02479 0.0579,-0.04134 0.0413,-0.01654 0.10335,-0.02479 0.062,-0.0083 0.16123,-0.0083 0.0992,0 0.16123,0.0083 0.0661,0.0083 0.0992,0.02479 0.0372,0.01654 0.0537,0.04134 0.0165,0.02066 0.0165,0.04961 v 0.322461 q 0.22738,-0.248047 0.45475,-0.37207 0.23151,-0.124024 0.47956,-0.124024 0.1695,0 0.30592,0.03721 0.13643,0.03307 0.24392,0.09922 0.10749,0.06615 0.1819,0.161231 0.0786,0.09095 0.13229,0.206706 0.12402,-0.132291 0.24391,-0.227377 0.11989,-0.09922 0.23565,-0.157097 0.11575,-0.06201 0.23151,-0.09095 0.11575,-0.02894 0.23564,-0.02894 0.27699,0 0.46716,0.09508 0.19017,0.09095 0.30592,0.252182 0.11576,0.157096 0.16537,0.37207 0.0496,0.210839 0.0496,0.450617 z"
       fill-rule="nonzero"
       id="path205"
       style="stroke-width:0.264583" />
    <path
       fill="#cfe2f3"
       d="m 31.110957,55.588336 h 19.59167 v 16.549999 h -19.59167 z"
       fill-rule="evenodd"
       id="path207"
       style="stroke-width:0.264583" />
    <path
       fill="#000000"
       d="m 39.300167,65.816952 q 0.0372,0.11162 0.0455,0.177766 0.008,0.06615 -0.0248,0.09922 -0.0331,0.03307 -0.11989,0.04134 -0.0868,0.0083 -0.23977,0.0083 -0.1571,0 -0.24805,-0.0083 -0.0868,-0.0041 -0.13229,-0.01654 -0.0455,-0.01654 -0.0661,-0.04134 -0.0165,-0.02479 -0.0289,-0.06201 l -0.27285,-0.806154 h -1.50482 l -0.25631,0.781349 q -0.0124,0.04547 -0.0331,0.07441 -0.0165,0.02894 -0.062,0.04961 -0.0455,0.01654 -0.12815,0.02066 -0.0827,0.0083 -0.21498,0.0083 -0.14469,0 -0.22737,-0.01241 -0.0786,-0.0083 -0.11163,-0.04134 -0.0289,-0.03721 -0.0207,-0.103354 0.0124,-0.06615 0.0496,-0.173633 l 1.2361,-3.559471 q 0.0207,-0.05374 0.0455,-0.08682 0.0248,-0.03307 0.0786,-0.04961 0.0537,-0.01654 0.14882,-0.02066 0.0951,-0.0041 0.25632,-0.0041 0.1819,0 0.28939,0.0041 0.10748,0.0041 0.1695,0.02066 0.062,0.01654 0.0868,0.05374 0.0248,0.03307 0.0455,0.09095 z m -1.84381,-2.939356 v 0 l -0.57051,1.703255 h 1.14102 z m 5.1418,1.715659 q 0,0.367934 -0.0785,0.665591 -0.0786,0.297656 -0.23152,0.504362 -0.15296,0.206705 -0.38033,0.318328 -0.22325,0.11162 -0.51677,0.11162 -0.11989,0 -0.22324,-0.02479 -0.0992,-0.02066 -0.1943,-0.06615 -0.091,-0.04961 -0.18604,-0.119888 -0.0909,-0.07441 -0.19017,-0.169501 v 1.302248 q 0,0.03307 -0.0207,0.05788 -0.0165,0.02479 -0.062,0.04134 -0.0455,0.01654 -0.11989,0.02479 -0.0744,0.0083 -0.19017,0.0083 -0.11576,0 -0.19017,-0.0083 -0.0744,-0.0083 -0.11989,-0.02479 -0.0413,-0.01654 -0.062,-0.04134 -0.0165,-0.02479 -0.0165,-0.05788 v -3.865399 q 0,-0.02894 0.0124,-0.04961 0.0165,-0.02479 0.0538,-0.04134 0.0413,-0.01654 0.10335,-0.02479 0.0662,-0.0083 0.16123,-0.0083 0.0909,0 0.15296,0.0083 0.0662,0.0082 0.10336,0.02479 0.0413,0.01654 0.0537,0.04134 0.0165,0.02066 0.0165,0.04961 v 0.326597 q 0.12402,-0.124024 0.23977,-0.21911 0.11576,-0.09508 0.23565,-0.157096 0.11989,-0.06201 0.24805,-0.09095 0.13229,-0.03307 0.27698,-0.03307 0.30179,0 0.51677,0.119891 0.21497,0.115755 0.34726,0.326594 0.13643,0.206705 0.19844,0.483692 0.062,0.272852 0.062,0.587045 z m -0.81028,0.05788 q 0,-0.177769 -0.0289,-0.338998 -0.0248,-0.165364 -0.0909,-0.289388 -0.062,-0.128159 -0.16537,-0.202573 -0.10335,-0.07855 -0.26045,-0.07855 -0.0744,0 -0.15296,0.02479 -0.0744,0.02066 -0.15296,0.07441 -0.0786,0.05374 -0.16537,0.136425 -0.0827,0.08268 -0.17363,0.206705 v 0.913641 q 0.16123,0.206706 0.31006,0.322461 0.14883,0.11162 0.31006,0.11162 0.15296,0 0.26045,-0.07855 0.10749,-0.07855 0.17363,-0.202573 0.0703,-0.128156 0.10335,-0.285253 0.0331,-0.157096 0.0331,-0.314193 z m 4.21783,-0.05788 q 0,0.367934 -0.0785,0.665591 -0.0786,0.297656 -0.23151,0.504362 -0.15296,0.206705 -0.38034,0.318328 -0.22324,0.11162 -0.51676,0.11162 -0.11989,0 -0.22325,-0.02479 -0.0992,-0.02066 -0.1943,-0.06615 -0.0909,-0.04961 -0.18604,-0.119888 -0.0909,-0.07441 -0.19016,-0.169501 v 1.302248 q 0,0.03307 -0.0207,0.05788 -0.0165,0.02479 -0.062,0.04134 -0.0455,0.01654 -0.11989,0.02479 -0.0744,0.0083 -0.19017,0.0083 -0.11575,0 -0.19017,-0.0083 -0.0744,-0.0083 -0.11989,-0.02479 -0.0413,-0.01654 -0.062,-0.04134 -0.0165,-0.02479 -0.0165,-0.05788 v -3.865399 q 0,-0.02894 0.0124,-0.04961 0.0165,-0.02479 0.0538,-0.04134 0.0413,-0.01654 0.10335,-0.02479 0.0661,-0.0083 0.16123,-0.0083 0.0909,0 0.15296,0.0083 0.0661,0.0082 0.10335,0.02479 0.0413,0.01654 0.0537,0.04134 0.0165,0.02066 0.0165,0.04961 v 0.326597 q 0.12402,-0.124024 0.23977,-0.21911 0.11576,-0.09508 0.23565,-0.157096 0.11989,-0.06201 0.24804,-0.09095 0.1323,-0.03307 0.27699,-0.03307 0.30179,0 0.51676,0.119891 0.21498,0.115755 0.34727,0.326594 0.13643,0.206705 0.19844,0.483692 0.062,0.272852 0.062,0.587045 z m -0.81029,0.05788 q 0,-0.177769 -0.0289,-0.338998 -0.0248,-0.165364 -0.0909,-0.289388 -0.062,-0.128159 -0.16536,-0.202573 -0.10336,-0.07855 -0.26045,-0.07855 -0.0744,0 -0.15297,0.02479 -0.0744,0.02066 -0.15296,0.07441 -0.0786,0.05374 -0.16536,0.136425 -0.0827,0.08268 -0.17363,0.206705 v 0.913641 q 0.16122,0.206706 0.31005,0.322461 0.14883,0.11162 0.31006,0.11162 0.15296,0 0.26045,-0.07855 0.10749,-0.07855 0.17363,-0.202573 0.0703,-0.128156 0.10336,-0.285253 0.0331,-0.157096 0.0331,-0.314193 z"
       fill-rule="nonzero"
       id="path209"
       style="stroke-width:0.264583" />
    <path
       fill="#cfe2f3"
       d="m 56.595327,55.588336 h 19.59167 v 16.549999 h -19.59167 z"
       fill-rule="evenodd"
       id="path211"
       style="stroke-width:0.264583" />
    <path
       fill="#000000"
       d="m 64.784547,65.816952 q 0.0372,0.11162 0.0455,0.177766 0.008,0.06615 -0.0248,0.09922 -0.0331,0.03307 -0.11989,0.04134 -0.0868,0.0083 -0.23978,0.0083 -0.15709,0 -0.24804,-0.0083 -0.0868,-0.0041 -0.13229,-0.01654 -0.0455,-0.01654 -0.0661,-0.04134 -0.0165,-0.02479 -0.0289,-0.06201 l -0.27285,-0.806154 h -1.50482 l -0.25631,0.781349 q -0.0124,0.04547 -0.0331,0.07441 -0.0165,0.02894 -0.062,0.04961 -0.0455,0.01654 -0.12816,0.02066 -0.0827,0.0083 -0.21497,0.0083 -0.14469,0 -0.22738,-0.01241 -0.0785,-0.0083 -0.11162,-0.04134 -0.0289,-0.03721 -0.0207,-0.103354 0.0124,-0.06615 0.0496,-0.173633 l 1.2361,-3.559471 q 0.0207,-0.05374 0.0455,-0.08682 0.0248,-0.03307 0.0786,-0.04961 0.0537,-0.01654 0.14883,-0.02066 0.0951,-0.0041 0.25631,-0.0041 0.1819,0 0.28939,0.0041 0.10749,0.0041 0.1695,0.02066 0.062,0.01654 0.0868,0.05374 0.0248,0.03307 0.0455,0.09095 z m -1.84382,-2.939356 v 0 l -0.5705,1.703255 h 1.14101 z m 5.14181,1.715659 q 0,0.367934 -0.0785,0.665591 -0.0786,0.297656 -0.23151,0.504362 -0.15296,0.206705 -0.38034,0.318328 -0.22324,0.11162 -0.51676,0.11162 -0.11989,0 -0.22325,-0.02479 -0.0992,-0.02066 -0.1943,-0.06615 -0.0909,-0.04961 -0.18603,-0.119888 -0.091,-0.07441 -0.19017,-0.169501 v 1.302248 q 0,0.03307 -0.0207,0.05788 -0.0165,0.02479 -0.062,0.04134 -0.0455,0.01654 -0.11989,0.02479 -0.0744,0.0083 -0.19017,0.0083 -0.11575,0 -0.19017,-0.0083 -0.0744,-0.0083 -0.11989,-0.02479 -0.0413,-0.01654 -0.062,-0.04134 -0.0165,-0.02479 -0.0165,-0.05788 v -3.865399 q 0,-0.02894 0.0124,-0.04961 0.0165,-0.02479 0.0538,-0.04134 0.0413,-0.01654 0.10335,-0.02479 0.0661,-0.0083 0.16123,-0.0083 0.0909,0 0.15296,0.0083 0.0661,0.0082 0.10336,0.02479 0.0413,0.01654 0.0537,0.04134 0.0165,0.02066 0.0165,0.04961 v 0.326597 q 0.12402,-0.124024 0.23977,-0.21911 0.11576,-0.09508 0.23565,-0.157096 0.11989,-0.06201 0.24805,-0.09095 0.13229,-0.03307 0.27698,-0.03307 0.30179,0 0.51677,0.119891 0.21497,0.115755 0.34726,0.326594 0.13643,0.206705 0.19844,0.483692 0.062,0.272852 0.062,0.587045 z m -0.81029,0.05788 q 0,-0.177769 -0.0289,-0.338998 -0.0248,-0.165364 -0.0909,-0.289388 -0.062,-0.128159 -0.16536,-0.202573 -0.10336,-0.07855 -0.26045,-0.07855 -0.0744,0 -0.15296,0.02479 -0.0744,0.02066 -0.15297,0.07441 -0.0785,0.05374 -0.16536,0.136425 -0.0827,0.08268 -0.17363,0.206705 v 0.913641 q 0.16123,0.206706 0.31006,0.322461 0.14882,0.11162 0.31005,0.11162 0.15297,0 0.26045,-0.07855 0.10749,-0.07855 0.17364,-0.202573 0.0703,-0.128156 0.10335,-0.285253 0.0331,-0.157096 0.0331,-0.314193 z m 4.21783,-0.05788 q 0,0.367934 -0.0786,0.665591 -0.0785,0.297656 -0.23151,0.504362 -0.15296,0.206705 -0.38034,0.318328 -0.22324,0.11162 -0.51676,0.11162 -0.11989,0 -0.22324,-0.02479 -0.0992,-0.02066 -0.19431,-0.06615 -0.0909,-0.04961 -0.18603,-0.119888 -0.0909,-0.07441 -0.19017,-0.169501 v 1.302248 q 0,0.03307 -0.0207,0.05788 -0.0165,0.02479 -0.062,0.04134 -0.0455,0.01654 -0.11989,0.02479 -0.0744,0.0083 -0.19017,0.0083 -0.11576,0 -0.19017,-0.0083 -0.0744,-0.0083 -0.11989,-0.02479 -0.0413,-0.01654 -0.062,-0.04134 -0.0165,-0.02479 -0.0165,-0.05788 v -3.865399 q 0,-0.02894 0.0124,-0.04961 0.0165,-0.02479 0.0537,-0.04134 0.0413,-0.01654 0.10336,-0.02479 0.0661,-0.0083 0.16122,-0.0083 0.0909,0 0.15297,0.0083 0.0661,0.0082 0.10335,0.02479 0.0413,0.01654 0.0537,0.04134 0.0165,0.02066 0.0165,0.04961 v 0.326597 q 0.12402,-0.124024 0.23978,-0.21911 0.11575,-0.09508 0.23564,-0.157096 0.11989,-0.06201 0.24805,-0.09095 0.13229,-0.03307 0.27699,-0.03307 0.30179,0 0.51676,0.119891 0.21497,0.115755 0.34727,0.326594 0.13642,0.206705 0.19843,0.483692 0.062,0.272852 0.062,0.587045 z m -0.81028,0.05788 q 0,-0.177769 -0.0289,-0.338998 -0.0248,-0.165364 -0.0909,-0.289388 -0.062,-0.128159 -0.16537,-0.202573 -0.10335,-0.07855 -0.26045,-0.07855 -0.0744,0 -0.15296,0.02479 -0.0744,0.02066 -0.15296,0.07441 -0.0785,0.05374 -0.16537,0.136425 -0.0827,0.08268 -0.17363,0.206705 v 0.913641 q 0.16123,0.206706 0.31006,0.322461 0.14883,0.11162 0.31006,0.11162 0.15296,0 0.26045,-0.07855 0.10748,-0.07855 0.17363,-0.202573 0.0703,-0.128156 0.10335,-0.285253 0.0331,-0.157096 0.0331,-0.314193 z"
       fill-rule="nonzero"
       id="path213"
       style="stroke-width:0.264583" />
    <path
       fill="#cfe2f3"
       d="M 82.080397,55.588336 H 101.67207 V 72.138335 H 82.080397 Z"
       fill-rule="evenodd"
       id="path215"
       style="stroke-width:0.264583" />
    <path
       fill="#000000"
       d="m 90.269607,65.816952 q 0.0372,0.11162 0.0455,0.177766 0.008,0.06615 -0.0248,0.09922 -0.0331,0.03307 -0.11989,0.04134 -0.0868,0.0083 -0.23978,0.0083 -0.1571,0 -0.24805,-0.0083 -0.0868,-0.0041 -0.13229,-0.01654 -0.0455,-0.01654 -0.0661,-0.04134 -0.0165,-0.02479 -0.0289,-0.06201 l -0.27286,-0.806154 h -1.50481 l -0.25632,0.781349 q -0.0124,0.04547 -0.0331,0.07441 -0.0165,0.02894 -0.062,0.04961 -0.0455,0.01654 -0.12816,0.02066 -0.0827,0.0083 -0.21497,0.0083 -0.1447,0 -0.22738,-0.01241 -0.0785,-0.0083 -0.11162,-0.04134 -0.0289,-0.03721 -0.0207,-0.103354 0.0124,-0.06615 0.0496,-0.173633 l 1.2361,-3.559471 q 0.0207,-0.05374 0.0455,-0.08682 0.0248,-0.03307 0.0786,-0.04961 0.0537,-0.01654 0.14882,-0.02066 0.0951,-0.0041 0.25632,-0.0041 0.1819,0 0.28939,0.0041 0.10748,0.0041 0.1695,0.02066 0.062,0.01654 0.0868,0.05374 0.0248,0.03307 0.0455,0.09095 z m -1.84381,-2.939356 v 0 l -0.57051,1.703255 h 1.14102 z m 5.1418,1.715659 q 0,0.367934 -0.0785,0.665591 -0.0785,0.297656 -0.23151,0.504362 -0.15297,0.206705 -0.38034,0.318328 -0.22324,0.11162 -0.51677,0.11162 -0.11989,0 -0.22324,-0.02479 -0.0992,-0.02066 -0.1943,-0.06615 -0.0909,-0.04961 -0.18604,-0.119888 -0.091,-0.07441 -0.19017,-0.169501 v 1.302248 q 0,0.03307 -0.0207,0.05788 -0.0165,0.02479 -0.062,0.04134 -0.0455,0.01654 -0.11988,0.02479 -0.0744,0.0083 -0.19017,0.0083 -0.11576,0 -0.19017,-0.0083 -0.0744,-0.0083 -0.11989,-0.02479 -0.0413,-0.01654 -0.062,-0.04134 -0.0165,-0.02479 -0.0165,-0.05788 v -3.865399 q 0,-0.02894 0.0124,-0.04961 0.0165,-0.02479 0.0537,-0.04134 0.0413,-0.01654 0.10336,-0.02479 0.0661,-0.0083 0.16123,-0.0083 0.0909,0 0.15296,0.0083 0.0661,0.0082 0.10335,0.02479 0.0413,0.01654 0.0538,0.04134 0.0165,0.02066 0.0165,0.04961 v 0.326597 q 0.12403,-0.124024 0.23978,-0.21911 0.11576,-0.09508 0.23565,-0.157096 0.11988,-0.06201 0.24804,-0.09095 0.13229,-0.03307 0.27699,-0.03307 0.30179,0 0.51676,0.119891 0.21498,0.115755 0.34727,0.326594 0.13642,0.206705 0.19844,0.483692 0.062,0.272852 0.062,0.587045 z m -0.81028,0.05788 q 0,-0.177769 -0.0289,-0.338998 -0.0248,-0.165364 -0.091,-0.289388 -0.062,-0.128159 -0.16537,-0.202573 -0.10335,-0.07855 -0.26045,-0.07855 -0.0744,0 -0.15296,0.02479 -0.0744,0.02066 -0.15296,0.07441 -0.0786,0.05374 -0.16537,0.136425 -0.0827,0.08268 -0.17363,0.206705 v 0.913641 q 0.16123,0.206706 0.31006,0.322461 0.14883,0.11162 0.31006,0.11162 0.15296,0 0.26045,-0.07855 0.10749,-0.07855 0.17363,-0.202573 0.0703,-0.128156 0.10335,-0.285253 0.0331,-0.157096 0.0331,-0.314193 z m 4.21783,-0.05788 q 0,0.367934 -0.0786,0.665591 -0.0786,0.297656 -0.23151,0.504362 -0.15296,0.206705 -0.38034,0.318328 -0.22324,0.11162 -0.51676,0.11162 -0.11989,0 -0.22325,-0.02479 -0.0992,-0.02066 -0.1943,-0.06615 -0.091,-0.04961 -0.18603,-0.119888 -0.0909,-0.07441 -0.19017,-0.169501 v 1.302248 q 0,0.03307 -0.0207,0.05788 -0.0165,0.02479 -0.062,0.04134 -0.0455,0.01654 -0.11989,0.02479 -0.0744,0.0083 -0.19017,0.0083 -0.11575,0 -0.19017,-0.0083 -0.0744,-0.0083 -0.11988,-0.02479 -0.0413,-0.01654 -0.062,-0.04134 -0.0165,-0.02479 -0.0165,-0.05788 v -3.865399 q 0,-0.02894 0.0124,-0.04961 0.0165,-0.02479 0.0538,-0.04134 0.0413,-0.01654 0.10335,-0.02479 0.0661,-0.0083 0.16123,-0.0083 0.091,0 0.15296,0.0083 0.0661,0.0082 0.10336,0.02479 0.0413,0.01654 0.0537,0.04134 0.0165,0.02066 0.0165,0.04961 v 0.326597 q 0.12402,-0.124024 0.23978,-0.21911 0.11575,-0.09508 0.23564,-0.157096 0.11989,-0.06201 0.24805,-0.09095 0.13229,-0.03307 0.27698,-0.03307 0.30179,0 0.51677,0.119891 0.21497,0.115755 0.34726,0.326594 0.13643,0.206705 0.19844,0.483692 0.062,0.272852 0.062,0.587045 z m -0.81029,0.05788 q 0,-0.177769 -0.0289,-0.338998 -0.0248,-0.165364 -0.0909,-0.289388 -0.062,-0.128159 -0.16536,-0.202573 -0.10335,-0.07855 -0.26045,-0.07855 -0.0744,0 -0.15296,0.02479 -0.0744,0.02066 -0.15297,0.07441 -0.0786,0.05374 -0.16536,0.136425 -0.0827,0.08268 -0.17363,0.206705 v 0.913641 q 0.16123,0.206706 0.31005,0.322461 0.14883,0.11162 0.31006,0.11162 0.15296,0 0.26045,-0.07855 0.10749,-0.07855 0.17363,-0.202573 0.0703,-0.128156 0.10336,-0.285253 0.0331,-0.157096 0.0331,-0.314193 z"
       fill-rule="nonzero"
       id="path217"
       style="stroke-width:0.264583" />
    <path
       fill="#000000"
       fill-opacity="0"
       d="m 20.862577,117.53555 h 91.916673 v 16.59167 H 20.862577 Z"
       fill-rule="evenodd"
       id="path219"
       style="stroke-width:0.264583" />
    <path
       fill="#000000"
       d="m 29.113657,123.14174 q 0,0.11989 -0.0124,0.20671 -0.008,0.0827 -0.0289,0.13642 -0.0207,0.0496 -0.0538,0.0744 -0.0289,0.0248 -0.0661,0.0248 h -1.33946 v 4.31189 q 0,0.0413 -0.0289,0.0744 -0.0248,0.0331 -0.0868,0.0537 -0.062,0.0207 -0.1695,0.0331 -0.10335,0.0124 -0.26045,0.0124 -0.1571,0 -0.26458,-0.0124 -0.10336,-0.0124 -0.16537,-0.0331 -0.062,-0.0207 -0.091,-0.0537 -0.0248,-0.0331 -0.0248,-0.0744 v -4.31188 h -1.33946 q -0.0413,0 -0.0703,-0.0248 -0.0289,-0.0248 -0.0496,-0.0744 -0.0207,-0.0537 -0.0331,-0.13643 -0.008,-0.0868 -0.008,-0.20671 0,-0.12402 0.008,-0.21083 0.0124,-0.0868 0.0331,-0.13643 0.0207,-0.0537 0.0496,-0.0744 0.0289,-0.0248 0.0703,-0.0248 h 3.77032 q 0.0372,0 0.0661,0.0248 0.0331,0.0207 0.0538,0.0744 0.0207,0.0496 0.0289,0.13643 0.0124,0.0868 0.0124,0.21083 z m 2.93935,1.418 q 0,0.14883 -0.008,0.24392 -0.008,0.0951 -0.0248,0.14883 -0.0165,0.0537 -0.0455,0.0744 -0.0248,0.0207 -0.0661,0.0207 -0.0331,0 -0.0744,-0.0124 -0.0413,-0.0165 -0.0951,-0.0331 -0.0496,-0.0165 -0.11162,-0.0289 -0.062,-0.0165 -0.13643,-0.0165 -0.0868,0 -0.17363,0.0372 -0.0868,0.0331 -0.1819,0.10748 -0.0909,0.0744 -0.19431,0.19844 -0.0992,0.12402 -0.21497,0.30592 v 2.29858 q 0,0.0413 -0.0248,0.0744 -0.0248,0.0289 -0.0868,0.0496 -0.0579,0.0207 -0.1571,0.0289 -0.0992,0.0124 -0.25218,0.0124 -0.15296,0 -0.25218,-0.0124 -0.0992,-0.008 -0.16123,-0.0289 -0.0579,-0.0207 -0.0827,-0.0496 -0.0248,-0.0331 -0.0248,-0.0744 v -3.68764 q 0,-0.0413 0.0207,-0.0703 0.0207,-0.0331 0.0744,-0.0537 0.0537,-0.0207 0.13643,-0.0289 0.0868,-0.0124 0.21497,-0.0124 0.13229,0 0.21911,0.0124 0.0868,0.008 0.13229,0.0289 0.0496,0.0207 0.0703,0.0537 0.0207,0.0289 0.0207,0.0703 v 0.45889 q 0.1447,-0.20671 0.27285,-0.339 0.12816,-0.13642 0.24392,-0.21497 0.11575,-0.0786 0.23151,-0.10749 0.11575,-0.0331 0.23151,-0.0331 0.0537,0 0.11575,0.008 0.062,0.004 0.12816,0.0207 0.0661,0.0124 0.11575,0.0331 0.0496,0.0165 0.0703,0.0372 0.0248,0.0207 0.0331,0.0455 0.0124,0.0248 0.0207,0.0703 0.008,0.0413 0.0124,0.12816 0.004,0.0868 0.004,0.23564 z m 3.78272,3.35691 q 0,0.0579 -0.0413,0.0909 -0.0413,0.0331 -0.1323,0.0455 -0.0868,0.0165 -0.26044,0.0165 -0.18604,0 -0.27286,-0.0165 -0.0827,-0.0124 -0.11989,-0.0455 -0.0331,-0.0331 -0.0331,-0.0909 v -0.29352 q -0.22737,0.24392 -0.5209,0.38034 -0.28938,0.13643 -0.64492,0.13643 -0.29352,0 -0.54157,-0.0786 -0.24391,-0.0744 -0.42581,-0.22325 -0.17777,-0.15296 -0.27699,-0.3762 -0.0992,-0.22325 -0.0992,-0.52091 0,-0.32246 0.12403,-0.5581 0.12815,-0.23978 0.3762,-0.39274 0.25218,-0.1571 0.62425,-0.23151 0.37207,-0.0744 0.86403,-0.0744 h 0.35967 v -0.22325 q 0,-0.17363 -0.0372,-0.30179 -0.0331,-0.13229 -0.11575,-0.21911 -0.0786,-0.0868 -0.21498,-0.12815 -0.13229,-0.0413 -0.33072,-0.0413 -0.26045,0 -0.46716,0.0579 -0.20257,0.0579 -0.35967,0.12816 -0.15709,0.0703 -0.26458,0.12815 -0.10335,0.0579 -0.1695,0.0579 -0.0455,0 -0.0827,-0.0289 -0.0331,-0.0289 -0.0579,-0.0827 -0.0207,-0.0537 -0.0331,-0.13229 -0.0124,-0.0786 -0.0124,-0.17363 0,-0.12816 0.0207,-0.20257 0.0207,-0.0744 0.0786,-0.13229 0.0579,-0.062 0.20257,-0.13229 0.14469,-0.0744 0.339,-0.13643 0.1943,-0.062 0.42168,-0.0992 0.23151,-0.0413 0.47542,-0.0413 0.43408,0 0.74001,0.0868 0.31005,0.0827 0.50849,0.26045 0.19844,0.17363 0.28939,0.45062 0.0909,0.27698 0.0909,0.65732 z m -1.02113,-1.57924 h -0.39687 q -0.25218,0 -0.42995,0.0372 -0.17777,0.0372 -0.28939,0.11162 -0.11162,0.0744 -0.16536,0.1819 -0.0496,0.10336 -0.0496,0.23978 0,0.23151 0.14469,0.3638 0.14883,0.13231 0.40928,0.13231 0.21911,0 0.40101,-0.11163 0.18603,-0.11163 0.3762,-0.3266 z m 5.55625,1.56684 q 0,0.0455 -0.0207,0.0785 -0.0207,0.0289 -0.0703,0.0496 -0.0496,0.0207 -0.13643,0.0289 -0.0827,0.008 -0.2067,0.008 -0.13229,0 -0.21498,-0.008 -0.0827,-0.008 -0.13642,-0.0289 -0.0496,-0.0207 -0.0744,-0.0496 -0.0207,-0.0331 -0.0207,-0.0785 v -0.40928 q -0.28525,0.30593 -0.59944,0.47543 -0.31006,0.1695 -0.6904,0.1695 -0.42168,0 -0.7152,-0.16123 -0.28939,-0.16537 -0.47543,-0.44235 -0.1819,-0.277 -0.26458,-0.64494 -0.0827,-0.37207 -0.0827,-0.78134 0,-0.49196 0.10335,-0.8847 0.10749,-0.39275 0.31006,-0.66973 0.20257,-0.27699 0.50436,-0.42581 0.30179,-0.14883 0.69453,-0.14883 0.31006,0 0.56224,0.12816 0.25218,0.12402 0.50023,0.36793 v -1.99678 q 0,-0.0413 0.0207,-0.0744 0.0248,-0.0331 0.0827,-0.0537 0.062,-0.0248 0.16123,-0.0372 0.0992,-0.0124 0.25219,-0.0124 0.15296,0 0.25218,0.0124 0.0992,0.0124 0.15709,0.0372 0.0579,0.0207 0.0827,0.0537 0.0248,0.0331 0.0248,0.0744 z m -1.03353,-2.46394 q -0.22324,-0.28112 -0.42995,-0.42995 -0.20257,-0.14883 -0.42581,-0.14883 -0.20257,0 -0.3514,0.10336 -0.14469,0.0992 -0.23564,0.26872 -0.0868,0.16949 -0.1323,0.38033 -0.0413,0.20671 -0.0413,0.42582 0,0.23151 0.0372,0.45062 0.0372,0.2191 0.11989,0.39274 0.0868,0.1695 0.22738,0.27285 0.14056,0.10335 0.35553,0.10335 0.10749,0 0.20671,-0.0289 0.10335,-0.0331 0.2067,-0.10335 0.10749,-0.0703 0.21911,-0.1819 0.11162,-0.11576 0.24391,-0.28112 z m 3.12126,2.46394 q 0,0.0413 -0.0248,0.0744 -0.0248,0.0289 -0.0868,0.0496 -0.0579,0.0207 -0.1571,0.0289 -0.0992,0.0124 -0.25218,0.0124 -0.15296,0 -0.25218,-0.0124 -0.0992,-0.008 -0.16123,-0.0289 -0.0579,-0.0207 -0.0827,-0.0496 -0.0248,-0.0331 -0.0248,-0.0744 v -3.67937 q 0,-0.0413 0.0248,-0.0703 0.0248,-0.0331 0.0827,-0.0537 0.062,-0.0248 0.16123,-0.0372 0.0992,-0.0124 0.25218,-0.0124 0.15296,0 0.25218,0.0124 0.0992,0.0124 0.1571,0.0372 0.062,0.0207 0.0868,0.0537 0.0248,0.0289 0.0248,0.0703 z m 0.0786,-4.93614 q 0,0.31419 -0.12816,0.43408 -0.12816,0.11989 -0.47542,0.11989 -0.3514,0 -0.47543,-0.11575 -0.11989,-0.11576 -0.11989,-0.41755 0,-0.31419 0.12403,-0.43408 0.12815,-0.12402 0.47955,-0.12402 0.34727,0 0.47129,0.11989 0.12403,0.11575 0.12403,0.41754 z m 3.14193,4.57234 q 0,0.1819 -0.0248,0.28112 -0.0207,0.0951 -0.0579,0.13643 -0.0372,0.0372 -0.11163,0.0703 -0.0703,0.0289 -0.16949,0.0496 -0.0951,0.0248 -0.21084,0.0372 -0.11162,0.0124 -0.22738,0.0124 -0.31006,0 -0.53743,-0.0786 -0.22738,-0.0785 -0.37621,-0.23978 -0.14883,-0.16537 -0.21911,-0.41341 -0.0703,-0.24806 -0.0703,-0.58706 v -1.88929 h -0.44235 q -0.0786,0 -0.11989,-0.0951 -0.0413,-0.0992 -0.0413,-0.32659 0,-0.11989 0.008,-0.20258 0.0124,-0.0827 0.0331,-0.12815 0.0207,-0.0496 0.0496,-0.0703 0.0331,-0.0207 0.0744,-0.0207 h 0.43822 v -0.82269 q 0,-0.0413 0.0207,-0.0744 0.0248,-0.0331 0.0827,-0.0537 0.062,-0.0248 0.16123,-0.0331 0.10336,-0.0124 0.25219,-0.0124 0.15296,0 0.25218,0.0124 0.10335,0.008 0.16123,0.0331 0.0579,0.0207 0.0827,0.0537 0.0248,0.0331 0.0248,0.0744 v 0.82269 h 0.80202 q 0.0413,0 0.0703,0.0207 0.0331,0.0207 0.0537,0.0703 0.0207,0.0455 0.0289,0.12815 0.0124,0.0827 0.0124,0.20258 0,0.22737 -0.0413,0.32659 -0.0413,0.0951 -0.11989,0.0951 h -0.80615 v 1.73219 q 0,0.3018 0.0951,0.45476 0.0951,0.14882 0.339,0.14882 0.0827,0 0.14883,-0.0124 0.0661,-0.0165 0.11575,-0.0331 0.0538,-0.0207 0.0868,-0.0331 0.0372,-0.0165 0.0661,-0.0165 0.0248,0 0.0455,0.0165 0.0248,0.0124 0.0372,0.0579 0.0124,0.0413 0.0207,0.11577 0.0124,0.0744 0.0124,0.19017 z m 1.7942,0.3638 q 0,0.0413 -0.0248,0.0744 -0.0248,0.0289 -0.0868,0.0496 -0.0579,0.0207 -0.15709,0.0289 -0.0992,0.0124 -0.25218,0.0124 -0.15297,0 -0.25219,-0.0124 -0.0992,-0.008 -0.16123,-0.0289 -0.0579,-0.0207 -0.0827,-0.0496 -0.0248,-0.0331 -0.0248,-0.0744 v -3.67937 q 0,-0.0413 0.0248,-0.0703 0.0248,-0.0331 0.0827,-0.0537 0.062,-0.0248 0.16123,-0.0372 0.0992,-0.0124 0.25219,-0.0124 0.15296,0 0.25218,0.0124 0.0992,0.0124 0.15709,0.0372 0.062,0.0207 0.0868,0.0537 0.0248,0.0289 0.0248,0.0703 z m 0.0786,-4.93614 q 0,0.31419 -0.12816,0.43408 -0.12816,0.11989 -0.47542,0.11989 -0.3514,0 -0.47542,-0.11575 -0.1199,-0.11576 -0.1199,-0.41755 0,-0.31419 0.12403,-0.43408 0.12816,-0.12402 0.47956,-0.12402 0.34726,0 0.47128,0.11989 0.12403,0.11575 0.12403,0.41754 z m 4.68808,3.05511 q 0,0.47129 -0.12402,0.8599 -0.12403,0.3886 -0.37621,0.66973 -0.25218,0.28112 -0.63252,0.43408 -0.38033,0.15297 -0.88883,0.15297 -0.49196,0 -0.85576,-0.13643 -0.3638,-0.13642 -0.60358,-0.39688 -0.23978,-0.26044 -0.35553,-0.64079 -0.11576,-0.38034 -0.11576,-0.86816 0,-0.47129 0.12402,-0.8599 0.12816,-0.39274 0.38034,-0.66973 0.25218,-0.28112 0.62839,-0.43408 0.38034,-0.15296 0.88883,-0.15296 0.49609,0 0.8599,0.13642 0.3638,0.1323 0.59944,0.39275 0.23978,0.26044 0.35554,0.64078 0.11575,0.38034 0.11575,0.8723 z m -1.07073,0.0413 q 0,-0.27285 -0.0455,-0.50023 -0.0413,-0.23151 -0.14469,-0.401 -0.10336,-0.1695 -0.27699,-0.26459 -0.1695,-0.0951 -0.42995,-0.0951 -0.23151,0 -0.40514,0.0868 -0.17363,0.0827 -0.28525,0.24805 -0.11162,0.16123 -0.1695,0.39274 -0.0537,0.22738 -0.0537,0.5209 0,0.27285 0.0455,0.50436 0.0455,0.22738 0.1447,0.39687 0.10335,0.1695 0.27698,0.26459 0.17363,0.091 0.42995,0.091 0.23564,0 0.40927,-0.0827 0.17364,-0.0868 0.28526,-0.24805 0.11162,-0.16123 0.16536,-0.38861 0.0538,-0.23151 0.0538,-0.52503 z m 5.41569,1.83969 q 0,0.0413 -0.0248,0.0744 -0.0248,0.0289 -0.0827,0.0496 -0.0579,0.0207 -0.16123,0.0289 -0.0992,0.0124 -0.24805,0.0124 -0.15296,0 -0.25631,-0.0124 -0.0992,-0.008 -0.1571,-0.0289 -0.0579,-0.0207 -0.0827,-0.0496 -0.0248,-0.0331 -0.0248,-0.0744 v -2.10427 q 0,-0.26872 -0.0413,-0.42168 -0.0372,-0.15296 -0.11162,-0.26045 -0.0744,-0.11162 -0.19431,-0.1695 -0.11575,-0.062 -0.27285,-0.062 -0.19844,0 -0.40101,0.1447 -0.20257,0.14469 -0.42168,0.42168 v 2.45153 q 0,0.0413 -0.0248,0.0744 -0.0248,0.0289 -0.0868,0.0496 -0.0579,0.0207 -0.1571,0.0289 -0.0992,0.0124 -0.25218,0.0124 -0.15296,0 -0.25218,-0.0124 -0.0992,-0.008 -0.16123,-0.0289 -0.0579,-0.0207 -0.0827,-0.0496 -0.0248,-0.0331 -0.0248,-0.0744 v -3.68764 q 0,-0.0413 0.0207,-0.0703 0.0207,-0.0331 0.0744,-0.0538 0.0538,-0.0207 0.13643,-0.0289 0.0868,-0.0124 0.21497,-0.0124 0.13229,0 0.21911,0.0124 0.0868,0.008 0.13229,0.0289 0.0496,0.0207 0.0703,0.0538 0.0207,0.0289 0.0207,0.0703 v 0.42582 q 0.30592,-0.33073 0.62011,-0.4961 0.31833,-0.16536 0.66146,-0.16536 0.37621,0 0.63252,0.12402 0.26045,0.12403 0.41755,0.339 0.16123,0.21084 0.23151,0.49609 0.0703,0.28526 0.0703,0.68627 z m 4.16305,0.0124 q 0,0.0579 -0.0413,0.091 -0.0413,0.0331 -0.13229,0.0455 -0.0868,0.0165 -0.26045,0.0165 -0.18604,0 -0.27285,-0.0165 -0.0827,-0.0124 -0.11989,-0.0455 -0.0331,-0.0331 -0.0331,-0.091 v -0.29352 q -0.22737,0.24391 -0.5209,0.38034 -0.28938,0.13642 -0.64492,0.13642 -0.29352,0 -0.54157,-0.0786 -0.24391,-0.0744 -0.42581,-0.22324 -0.17777,-0.15296 -0.27698,-0.3762 -0.0992,-0.22325 -0.0992,-0.52091 0,-0.32246 0.12402,-0.55811 0.12816,-0.23977 0.3762,-0.39274 0.25219,-0.15709 0.62426,-0.23151 0.37207,-0.0744 0.86402,-0.0744 h 0.35967 v -0.22324 q 0,-0.17363 -0.0372,-0.30179 -0.0331,-0.13229 -0.11576,-0.21911 -0.0786,-0.0868 -0.21497,-0.12816 -0.1323,-0.0413 -0.33073,-0.0413 -0.26045,0 -0.46716,0.0579 -0.20257,0.0579 -0.35967,0.12816 -0.15709,0.0703 -0.26458,0.12816 -0.10335,0.0579 -0.1695,0.0579 -0.0455,0 -0.0827,-0.0289 -0.0331,-0.0289 -0.0579,-0.0827 -0.0207,-0.0537 -0.0331,-0.13229 -0.0124,-0.0785 -0.0124,-0.17364 0,-0.12815 0.0207,-0.20257 0.0207,-0.0744 0.0785,-0.13229 0.0579,-0.062 0.20258,-0.13229 0.14469,-0.0744 0.33899,-0.13643 0.1943,-0.062 0.42168,-0.0992 0.23151,-0.0413 0.47542,-0.0413 0.43409,0 0.74001,0.0868 0.31006,0.0827 0.5085,0.26045 0.19843,0.17364 0.28938,0.45062 0.091,0.27699 0.091,0.65733 z m -1.02113,-1.57924 h -0.39687 q -0.25218,0 -0.42995,0.0372 -0.17777,0.0372 -0.28939,0.11162 -0.11162,0.0744 -0.16536,0.1819 -0.0496,0.10336 -0.0496,0.23978 0,0.23151 0.14469,0.36381 0.14883,0.13229 0.40928,0.13229 0.21911,0 0.40101,-0.11163 0.18603,-0.11162 0.3762,-0.32659 z m 3.10059,1.56684 q 0,0.0413 -0.0248,0.0744 -0.0248,0.0289 -0.0868,0.0496 -0.0579,0.0207 -0.1571,0.0289 -0.0992,0.0124 -0.25218,0.0124 -0.15296,0 -0.25218,-0.0124 -0.0992,-0.008 -0.16123,-0.0289 -0.0579,-0.0207 -0.0827,-0.0496 -0.0248,-0.0331 -0.0248,-0.0744 v -5.43637 q 0,-0.0413 0.0248,-0.0744 0.0248,-0.0331 0.0827,-0.0537 0.062,-0.0248 0.16123,-0.0372 0.0992,-0.0124 0.25218,-0.0124 0.15297,0 0.25218,0.0124 0.0992,0.0124 0.1571,0.0372 0.062,0.0207 0.0868,0.0537 0.0248,0.0331 0.0248,0.0744 z m 7.45794,-2.61277 q 0,0.73587 -0.1943,1.2609 -0.19017,0.5209 -0.54984,0.85164 -0.35967,0.33073 -0.87643,0.48783 -0.51263,0.15296 -1.2237,0.15296 h -1.27744 q -0.13643,0 -0.23151,-0.0785 -0.0909,-0.0827 -0.0909,-0.26459 v -4.66329 q 0,-0.1819 0.0909,-0.26045 0.0951,-0.0827 0.23151,-0.0827 h 1.37252 q 0.71521,0 1.2113,0.1695 0.50023,0.16537 0.83923,0.4961 0.34313,0.32659 0.52089,0.81028 0.17777,0.48369 0.17777,1.12035 z m -1.12448,0.0372 q 0,-0.38034 -0.0909,-0.70694 -0.0868,-0.32659 -0.28525,-0.56637 -0.1943,-0.23978 -0.50436,-0.37207 -0.30593,-0.13643 -0.80616,-0.13643 h -0.54983 v 3.63802 h 0.56637 q 0.44649,0 0.75241,-0.11575 0.30592,-0.11576 0.50849,-0.34727 0.20671,-0.23564 0.30593,-0.58291 0.10335,-0.34726 0.10335,-0.81028 z m 5.36195,0.62425 q 0,0.19017 -0.0868,0.28112 -0.0827,0.0909 -0.23151,0.0909 h -2.24482 q 0,0.23564 0.0537,0.42995 0.0579,0.19016 0.17777,0.32659 0.12402,0.13229 0.31419,0.20257 0.19431,0.0703 0.46302,0.0703 0.27285,0 0.47956,-0.0372 0.2067,-0.0414 0.35553,-0.0868 0.15297,-0.0496 0.25218,-0.0868 0.0992,-0.0413 0.16123,-0.0413 0.0372,0 0.062,0.0165 0.0248,0.0124 0.0413,0.0496 0.0165,0.0372 0.0207,0.10749 0.008,0.0662 0.008,0.16951 0,0.091 -0.004,0.15709 -0.004,0.062 -0.0124,0.10749 -0.008,0.0455 -0.0248,0.0786 -0.0165,0.0289 -0.0455,0.0579 -0.0248,0.0289 -0.1447,0.0786 -0.11989,0.0496 -0.30592,0.0992 -0.18604,0.0455 -0.42582,0.0786 -0.23978,0.0372 -0.51263,0.0372 -0.49196,0 -0.86403,-0.12402 -0.36793,-0.12403 -0.61598,-0.37621 -0.24805,-0.25218 -0.37207,-0.63666 -0.11989,-0.38447 -0.11989,-0.90124 0,-0.49195 0.12816,-0.8847 0.12815,-0.39687 0.37207,-0.66972 0.24391,-0.27699 0.59117,-0.42168 0.35141,-0.1447 0.78962,-0.1447 0.46302,0 0.78962,0.13643 0.33073,0.13643 0.54157,0.38034 0.21084,0.23978 0.31005,0.5705 0.0992,0.33073 0.0992,0.71934 z m -1.00873,-0.29766 q 0.0124,-0.43822 -0.17776,-0.68626 -0.18604,-0.25218 -0.57878,-0.25218 -0.19843,0 -0.34726,0.0744 -0.1447,0.0744 -0.24392,0.20257 -0.0951,0.12402 -0.14883,0.29765 -0.0496,0.1695 -0.0579,0.36381 z m 5.57693,0.3514 q 0,0.49196 -0.10749,0.88884 -0.10335,0.39274 -0.30593,0.66973 -0.20257,0.27699 -0.50436,0.42582 -0.30179,0.14882 -0.6904,0.14882 -0.16122,0 -0.29765,-0.0331 -0.13229,-0.0289 -0.26045,-0.0909 -0.12402,-0.0662 -0.24805,-0.16123 -0.12402,-0.0951 -0.25631,-0.22324 v 1.73633 q 0,0.0413 -0.0248,0.0744 -0.0248,0.0331 -0.0868,0.0537 -0.0579,0.0248 -0.1571,0.0372 -0.0992,0.0124 -0.25218,0.0124 -0.15296,0 -0.25218,-0.0124 -0.0992,-0.0124 -0.16123,-0.0372 -0.0579,-0.0207 -0.0827,-0.0537 -0.0248,-0.0331 -0.0248,-0.0744 v -5.15112 q 0,-0.0413 0.0207,-0.0703 0.0207,-0.0331 0.0703,-0.0537 0.0538,-0.0207 0.13643,-0.0289 0.0868,-0.0124 0.21497,-0.0124 0.12402,0 0.20671,0.0124 0.0868,0.008 0.13642,0.0289 0.0538,0.0207 0.0744,0.0537 0.0207,0.0289 0.0207,0.0703 v 0.43409 q 0.16123,-0.16537 0.31419,-0.28939 0.1571,-0.12816 0.31833,-0.21084 0.16123,-0.0868 0.33073,-0.12816 0.17364,-0.0413 0.36794,-0.0413 0.40514,0 0.6904,0.16123 0.28525,0.1571 0.46302,0.43408 0.1819,0.27699 0.26458,0.64493 0.0827,0.36793 0.0827,0.78548 z m -1.08314,0.0744 q 0,-0.23564 -0.0372,-0.45062 -0.0331,-0.2191 -0.11989,-0.3886 -0.0827,-0.1695 -0.22324,-0.26872 -0.13643,-0.10335 -0.34313,-0.10335 -0.10335,0 -0.20671,0.0331 -0.0992,0.0289 -0.2067,0.0992 -0.10336,0.0703 -0.21498,0.1819 -0.11162,0.11162 -0.23564,0.27698 v 1.21543 q 0.2191,0.27699 0.41754,0.42995 0.19844,0.14883 0.41341,0.14883 0.20258,0 0.34314,-0.10335 0.14469,-0.10336 0.23564,-0.26872 0.0909,-0.1695 0.13229,-0.38034 0.0455,-0.21084 0.0455,-0.42168 z m 2.95589,1.82315 q 0,0.0413 -0.0248,0.0744 -0.0248,0.0289 -0.0868,0.0496 -0.0579,0.0207 -0.15709,0.0289 -0.0992,0.0124 -0.25219,0.0124 -0.15296,0 -0.25218,-0.0124 -0.0992,-0.008 -0.16123,-0.0289 -0.0579,-0.0207 -0.0827,-0.0496 -0.0248,-0.0331 -0.0248,-0.0744 v -5.43636 q 0,-0.0413 0.0248,-0.0744 0.0248,-0.0331 0.0827,-0.0537 0.062,-0.0248 0.16123,-0.0372 0.0992,-0.0124 0.25218,-0.0124 0.15297,0 0.25219,0.0124 0.0992,0.0124 0.15709,0.0372 0.062,0.0207 0.0868,0.0537 0.0248,0.0331 0.0248,0.0744 z m 4.76664,-1.88103 q 0,0.47129 -0.12403,0.8599 -0.12402,0.38861 -0.3762,0.66973 -0.25218,0.28112 -0.63252,0.43409 -0.38034,0.15296 -0.88884,0.15296 -0.49196,0 -0.85576,-0.13643 -0.3638,-0.13642 -0.60358,-0.39687 -0.23978,-0.26045 -0.35553,-0.6408 -0.11576,-0.38034 -0.11576,-0.86816 0,-0.47129 0.12402,-0.8599 0.12816,-0.39274 0.38034,-0.66972 0.25218,-0.28112 0.62839,-0.43409 0.38034,-0.15296 0.88883,-0.15296 0.4961,0 0.8599,0.13643 0.3638,0.13229 0.59945,0.39274 0.23978,0.26045 0.35553,0.64079 0.11576,0.38033 0.11576,0.87229 z m -1.07074,0.0413 q 0,-0.27285 -0.0455,-0.50022 -0.0413,-0.23151 -0.1447,-0.40101 -0.10335,-0.1695 -0.27698,-0.26459 -0.1695,-0.0951 -0.42995,-0.0951 -0.23151,0 -0.40515,0.0868 -0.17363,0.0827 -0.28525,0.24805 -0.11162,0.16123 -0.1695,0.39274 -0.0538,0.22738 -0.0538,0.5209 0,0.27285 0.0455,0.50436 0.0455,0.22738 0.14469,0.39688 0.10336,0.1695 0.27699,0.26458 0.17363,0.091 0.42995,0.091 0.23565,0 0.40928,-0.0827 0.17363,-0.0868 0.28525,-0.24805 0.11163,-0.16123 0.16537,-0.3886 0.0537,-0.23151 0.0537,-0.52504 z m 4.03076,1.98025 -0.44648,1.30638 q -0.0372,0.10336 -0.20257,0.14883 -0.16537,0.0455 -0.48369,0.0455 -0.16537,0 -0.26459,-0.0165 -0.0992,-0.0124 -0.14883,-0.0455 -0.0496,-0.0331 -0.0537,-0.0827 -0.004,-0.0496 0.0248,-0.11989 l 0.49196,-1.2361 q -0.0537,-0.0248 -0.0992,-0.0744 -0.0413,-0.0537 -0.062,-0.11162 l -1.26917,-3.38998 q -0.0537,-0.1447 -0.0537,-0.21911 0,-0.0786 0.0496,-0.11989 0.0496,-0.0455 0.16536,-0.062 0.11989,-0.0165 0.31419,-0.0165 0.17777,0 0.28112,0.008 0.10335,0.004 0.16123,0.0289 0.0579,0.0248 0.0868,0.0786 0.0289,0.0496 0.0579,0.1447 l 0.86816,2.46806 h 0.0124 l 0.79375,-2.51767 q 0.0248,-0.10749 0.062,-0.14056 0.0413,-0.0372 0.13229,-0.0537 0.0909,-0.0165 0.31833,-0.0165 0.17777,0 0.29352,0.0165 0.11989,0.0165 0.17364,0.062 0.0579,0.0455 0.0579,0.12402 0,0.0744 -0.0331,0.17777 z m 7.73907,-0.14056 q 0,0.0413 -0.0248,0.0744 -0.0248,0.0289 -0.0827,0.0496 -0.0579,0.0207 -0.15709,0.0289 -0.0992,0.0124 -0.25218,0.0124 -0.1571,0 -0.25632,-0.0124 -0.0992,-0.008 -0.16123,-0.0289 -0.0579,-0.0207 -0.0827,-0.0496 -0.0207,-0.0331 -0.0207,-0.0744 v -2.18695 q 0,-0.18604 -0.0372,-0.339 -0.0331,-0.15296 -0.10748,-0.26045 -0.0703,-0.11162 -0.1819,-0.1695 -0.10749,-0.062 -0.26045,-0.062 -0.18604,0 -0.37621,0.1447 -0.19017,0.14469 -0.41341,0.42168 v 2.45154 q 0,0.0413 -0.0248,0.0744 -0.0248,0.0289 -0.0868,0.0496 -0.0579,0.0207 -0.15709,0.0289 -0.0992,0.0124 -0.24805,0.0124 -0.15296,0 -0.25218,-0.0124 -0.0992,-0.008 -0.16123,-0.0289 -0.0579,-0.0207 -0.0827,-0.0496 -0.0248,-0.0331 -0.0248,-0.0744 v -2.18696 q 0,-0.18603 -0.0372,-0.339 -0.0331,-0.15296 -0.10335,-0.26045 -0.0703,-0.11162 -0.18191,-0.16949 -0.11162,-0.062 -0.26045,-0.062 -0.19016,0 -0.38033,0.14469 -0.19017,0.14469 -0.40928,0.42168 v 2.45154 q 0,0.0413 -0.0248,0.0744 -0.0248,0.0289 -0.0868,0.0496 -0.0579,0.0207 -0.1571,0.0289 -0.0992,0.0124 -0.25218,0.0124 -0.15296,0 -0.25218,-0.0124 -0.0992,-0.008 -0.16123,-0.0289 -0.0579,-0.0207 -0.0827,-0.0496 -0.0248,-0.0331 -0.0248,-0.0744 v -3.68764 q 0,-0.0413 0.0207,-0.0703 0.0207,-0.0331 0.0744,-0.0537 0.0537,-0.0207 0.13642,-0.0289 0.0868,-0.0124 0.21498,-0.0124 0.13229,0 0.21911,0.0124 0.0868,0.008 0.13229,0.0289 0.0496,0.0207 0.0703,0.0537 0.0207,0.0289 0.0207,0.0703 v 0.42582 q 0.30593,-0.33073 0.60772,-0.4961 0.30592,-0.16536 0.63665,-0.16536 0.22738,0 0.40928,0.0496 0.1819,0.0455 0.32246,0.13642 0.14469,0.0868 0.24805,0.21084 0.10335,0.12403 0.17363,0.27699 0.16536,-0.17777 0.32246,-0.30593 0.16123,-0.12815 0.31419,-0.2067 0.1571,-0.0827 0.31006,-0.11989 0.1571,-0.0413 0.31833,-0.0413 0.36794,0 0.62011,0.12402 0.25219,0.12403 0.40515,0.339 0.15709,0.21084 0.22324,0.49609 0.0661,0.28526 0.0661,0.60358 z m 4.427633,-1.95131 q 0,0.19017 -0.0868,0.28112 -0.0827,0.091 -0.23152,0.091 h -2.244823 q 0,0.23565 0.0537,0.42995 0.0579,0.19017 0.17777,0.3266 0.12403,0.13229 0.3142,0.20257 0.1943,0.0703 0.46302,0.0703 0.27285,0 0.47955,-0.0372 0.20671,-0.0414 0.355543,-0.0868 0.15296,-0.0496 0.25218,-0.0868 0.0992,-0.0413 0.16123,-0.0413 0.0372,0 0.062,0.0165 0.0248,0.0124 0.0413,0.0496 0.0165,0.0372 0.0207,0.10748 0.008,0.0662 0.008,0.16951 0,0.091 -0.004,0.1571 -0.004,0.062 -0.0124,0.10749 -0.008,0.0455 -0.0248,0.0786 -0.0165,0.0289 -0.0455,0.0579 -0.0248,0.0289 -0.14469,0.0786 -0.11989,0.0496 -0.30592,0.0992 -0.186043,0.0455 -0.425823,0.0786 -0.23978,0.0372 -0.51263,0.0372 -0.49196,0 -0.86403,-0.12403 -0.36793,-0.12402 -0.61598,-0.3762 -0.24805,-0.25218 -0.37207,-0.63666 -0.11989,-0.38448 -0.11989,-0.90124 0,-0.49196 0.12816,-0.8847 0.12816,-0.39688 0.37207,-0.66973 0.24391,-0.27698 0.59118,-0.42168 0.3514,-0.14469 0.78961,-0.14469 0.46302,0 0.78962,0.13642 0.330733,0.13643 0.541573,0.38034 0.21084,0.23978 0.31006,0.57051 0.0992,0.33073 0.0992,0.71934 z m -1.008723,-0.29765 q 0.0124,-0.43822 -0.17777,-0.68627 -0.18603,-0.25218 -0.57878,-0.25218 -0.19843,0 -0.34726,0.0744 -0.14469,0.0744 -0.24391,0.20257 -0.0951,0.12403 -0.14883,0.29766 -0.0496,0.1695 -0.0579,0.3638 z m 5.386753,2.24896 q 0,0.0413 -0.0248,0.0744 -0.0248,0.0289 -0.0827,0.0496 -0.0579,0.0207 -0.16123,0.0289 -0.0992,0.0124 -0.24805,0.0124 -0.15296,0 -0.25632,-0.0124 -0.0992,-0.008 -0.15709,-0.0289 -0.0579,-0.0207 -0.0827,-0.0496 -0.0248,-0.0331 -0.0248,-0.0744 v -2.10427 q 0,-0.26872 -0.0413,-0.42168 -0.0372,-0.15296 -0.11162,-0.26045 -0.0744,-0.11162 -0.1943,-0.1695 -0.11576,-0.062 -0.27285,-0.062 -0.19844,0 -0.40101,0.1447 -0.20257,0.14469 -0.42168,0.42168 v 2.45154 q 0,0.0413 -0.0248,0.0744 -0.0248,0.0289 -0.0868,0.0496 -0.0579,0.0207 -0.1571,0.0289 -0.0992,0.0124 -0.25218,0.0124 -0.15296,0 -0.25218,-0.0124 -0.0992,-0.008 -0.16123,-0.0289 -0.0579,-0.0207 -0.0827,-0.0496 -0.0248,-0.0331 -0.0248,-0.0744 v -3.68764 q 0,-0.0413 0.0207,-0.0703 0.0207,-0.0331 0.0744,-0.0537 0.0538,-0.0207 0.13643,-0.0289 0.0868,-0.0124 0.21497,-0.0124 0.13229,0 0.21911,0.0124 0.0868,0.008 0.13229,0.0289 0.0496,0.0207 0.0703,0.0537 0.0207,0.0289 0.0207,0.0703 v 0.42581 q 0.30592,-0.33073 0.62011,-0.49609 0.31833,-0.16537 0.66146,-0.16537 0.37621,0 0.63252,0.12403 0.26045,0.12402 0.41755,0.33899 0.16123,0.21084 0.23151,0.4961 0.0703,0.28525 0.0703,0.68626 z m 3.20394,-0.3638 q 0,0.1819 -0.0248,0.28112 -0.0207,0.0951 -0.0579,0.13643 -0.0372,0.0372 -0.11162,0.0703 -0.0703,0.0289 -0.1695,0.0496 -0.0951,0.0248 -0.21084,0.0372 -0.11162,0.0124 -0.22738,0.0124 -0.31006,0 -0.53743,-0.0786 -0.22738,-0.0785 -0.37621,-0.23978 -0.14882,-0.16537 -0.2191,-0.41341 -0.0703,-0.24806 -0.0703,-0.58705 v -1.8893 h -0.44235 q -0.0785,0 -0.11989,-0.0951 -0.0413,-0.0992 -0.0413,-0.32659 0,-0.11989 0.008,-0.20257 0.0124,-0.0827 0.0331,-0.12816 0.0207,-0.0496 0.0496,-0.0703 0.0331,-0.0207 0.0744,-0.0207 h 0.43821 v -0.82269 q 0,-0.0413 0.0207,-0.0744 0.0248,-0.0331 0.0827,-0.0537 0.062,-0.0248 0.16123,-0.0331 0.10335,-0.0124 0.25218,-0.0124 0.15296,0 0.25218,0.0124 0.10335,0.008 0.16123,0.0331 0.0579,0.0207 0.0827,0.0537 0.0248,0.0331 0.0248,0.0744 v 0.82269 h 0.80201 q 0.0413,0 0.0703,0.0207 0.0331,0.0207 0.0538,0.0703 0.0207,0.0455 0.0289,0.12816 0.0124,0.0827 0.0124,0.20257 0,0.22737 -0.0413,0.32659 -0.0413,0.0951 -0.11989,0.0951 h -0.80615 v 1.7322 q 0,0.30179 0.0951,0.45475 0.0951,0.14883 0.339,0.14883 0.0827,0 0.14883,-0.0124 0.0661,-0.0165 0.11575,-0.0331 0.0538,-0.0207 0.0868,-0.0331 0.0372,-0.0165 0.0661,-0.0165 0.0248,0 0.0455,0.0165 0.0248,0.0124 0.0372,0.0579 0.0124,0.0413 0.0207,0.11576 0.0124,0.0744 0.0124,0.19017 z"
       fill-rule="nonzero"
       id="path221"
       style="stroke-width:0.264583" />
  </g>
</svg>
