<?xml version="1.0" encoding="UTF-8" standalone="no"?>
<!-- Created with Inkscape (http://www.inkscape.org/) -->

<svg
   width="7.7292652mm"
   height="8.5920696mm"
   viewBox="0 0 7.7292652 8.5920696"
   version="1.1"
   id="svg773"
   inkscape:version="1.1.1 (c3084ef, 2021-09-22)"
   sodipodi:docname="kustomize.svg"
   xmlns:inkscape="http://www.inkscape.org/namespaces/inkscape"
   xmlns:sodipodi="http://sodipodi.sourceforge.net/DTD/sodipodi-0.dtd"
   xmlns="http://www.w3.org/2000/svg"
   xmlns:svg="http://www.w3.org/2000/svg">
  <sodipodi:namedview
     id="namedview775"
     pagecolor="#ffffff"
     bordercolor="#666666"
     borderopacity="1.0"
     inkscape:pageshadow="2"
     inkscape:pageopacity="0.0"
     inkscape:pagecheckerboard="0"
     inkscape:document-units="mm"
     showgrid="false"
     inkscape:zoom="8.813126"
     inkscape:cx="19.459611"
     inkscape:cy="28.083112"
     inkscape:window-width="1312"
     inkscape:window-height="969"
     inkscape:window-x="0"
     inkscape:window-y="25"
     inkscape:window-maximized="0"
     inkscape:current-layer="layer1" />
  <defs
     id="defs770" />
  <g
     inkscape:label="Слой 1"
     inkscape:groupmode="layer"
     id="layer1"
     transform="translate(-41.160403,-117.14764)">
    <path
       d="m 47.901872,117.94139 h -5.471469 c -0.263025,0 -0.47625,0.21325 -0.47625,0.47625 v 6.32618 c 0,0.263 0.213225,0.47625 0.47625,0.47625 h 5.471469 c 0.263023,0 0.47625,-0.21325 0.47625,-0.47625 v -6.32618 c 0,-0.263 -0.213227,-0.47625 -0.47625,-0.47625 z"
       fill="#ffffff"
       fill-opacity="0.4"
       id="path227"
       style="stroke-width:0.264583" />
    <path
       d="m 47.108122,117.14764 h -5.471469 c -0.263025,0 -0.47625,0.21325 -0.47625,0.47625 v 6.32618 c 0,0.263 0.213225,0.47625 0.47625,0.47625 h 5.471469 c 0.263023,0 0.47625,-0.21325 0.47625,-0.47625 v -6.32618 c 0,-0.263 -0.213227,-0.47625 -0.47625,-0.47625 z"
       fill="#ffffff"
       fill-opacity="0.4"
       id="path229"
       style="stroke-width:0.264583" />
    <path
       d="m 43.193162,118.73514 h 5.220256 c 0.263022,0 0.47625,0.21325 0.47625,0.47625 v 6.05207 c 0,0.26327 -0.213228,0.47625 -0.47625,0.47625 h -5.220256 c -0.263025,0 -0.47625,-0.21298 -0.47625,-0.47625 v -6.05207 c 0,-0.263 0.213225,-0.47625 0.47625,-0.47625 z"
       fill="#3e5fa8"
       id="path231"
       style="stroke-width:0.264583" />
    <path
       d="m 44.39437,120.24855 v 3.77825 h 0.502709 v -1.32291 l 0.629708,-0.58738 1.36525,1.91029 h 0.635 l -1.656292,-2.25425 1.592792,-1.524 h -0.650875 l -1.915583,1.88384 v -1.88384 z"
       fill="#ffffff"
       id="path233"
       style="stroke-width:0.264583" />
  </g>
</svg>
